<?xml version="1.0" encoding="UTF-8"?>
<svg version="1.1" xmlns="http://www.w3.org/2000/svg" width="512" height="512">
<path d="M0 0 C0.7662973 -0.00540298 1.5325946 -0.01080597 2.32211304 -0.01637268 C4.85112309 -0.02886443 7.37899581 -0.01236843 9.90795898 0.00561523 C11.66625529 0.00546027 13.42455194 0.00397175 15.18284607 0.00120544 C18.86570354 -0.00017869 22.54817163 0.01238297 26.23095703 0.03515625 C30.95465217 0.06356195 35.67770133 0.06079817 40.40144444 0.04806614 C44.03111808 0.04111633 47.66064202 0.04888987 51.29029655 0.06132317 C53.03224044 0.065843 54.77420035 0.06616983 56.51614571 0.06225777 C58.94859991 0.0593518 61.38015884 0.07582134 63.8125 0.09765625 C64.8949575 0.09090378 64.8949575 0.09090378 65.99928284 0.08401489 C68.89800379 0.1273152 70.86325191 0.1624731 73.2686615 1.86851501 C76.16842117 6.28263441 75.38372743 12.02530265 75.27587891 17.09008789 C74.96480392 32.02936827 76.75769584 44.88061582 83.34155273 58.50170898 C83.71022461 59.27901367 84.07889648 60.05631836 84.45874023 60.85717773 C92.5477887 76.6168756 105.08450567 85.93307729 121.57202148 91.61499023 C137.9906028 95.47718501 153.5484224 91.78118978 167.78295898 83.28295898 C170.4032869 81.57090485 170.4032869 81.57090485 172.55639648 79.28295898 C174.34155273 77.50170898 174.34155273 77.50170898 176.34155273 77.50170898 C176.60452148 76.92291992 176.86749023 76.34413086 177.13842773 75.74780273 C178.40215335 73.38857472 179.85771289 71.59873727 181.59155273 69.56420898 C191.88136231 56.42326467 195.5913937 39.97502263 194.34155273 23.50170898 C193.90685417 20.39565768 193.39491598 17.33065461 192.77905273 14.25561523 C191.58861282 6.76222116 191.58861282 6.76222116 193.92259216 2.8548584 C197.15049195 -0.28522192 198.9017379 -0.12078386 203.35742188 -0.11352539 C204.40445534 -0.12184891 204.40445534 -0.12184891 205.47264099 -0.13034058 C207.77470031 -0.14213012 210.07478809 -0.11787501 212.37670898 -0.09204102 C213.97806203 -0.09032982 215.57941789 -0.09039569 217.18077087 -0.09216309 C220.53419857 -0.09051033 223.88695734 -0.07181967 227.24023438 -0.0402832 C231.54023312 -0.00057305 235.83935709 0.00375827 240.13950443 -0.00374603 C243.44494147 -0.00681402 246.75018152 0.00529804 250.0555706 0.02238464 C251.64120689 0.02941887 253.2268655 0.03253866 254.81251717 0.0316925 C257.02711555 0.03348855 259.24066154 0.05485058 261.45507812 0.08178711 C262.71542374 0.0902063 263.97576935 0.09862549 265.27430725 0.1072998 C268.34155273 0.50170898 268.34155273 0.50170898 270.2250824 1.8326416 C272.77543356 5.64528919 272.47349568 10.12772695 271.90405273 14.50170898 C269.25590357 35.33381573 273.5486665 56.59038855 286.34155273 73.50170898 C295.20173187 83.94583076 306.6213867 91.24904904 320.47045898 92.72924805 C335.70844402 93.78265658 347.86651856 90.53322133 360.34155273 81.50170898 C361.41405273 80.73858398 362.48655273 79.97545898 363.59155273 79.18920898 C374.9584694 68.08063133 381.31245296 53.22550734 381.64306641 37.44067383 C381.67388475 30.42367917 381.28129992 23.81107631 379.80249023 16.93139648 C379.03055064 12.86235894 378.48412203 8.578138 379.34155273 4.50170898 C380.86975098 2.39709473 380.86975098 2.39709473 383.34155273 0.50170898 C386.14293089 0.10701375 388.5514406 -0.04587843 391.35131836 -0.01586914 C392.5568763 -0.02638306 392.5568763 -0.02638306 393.78678894 -0.03710938 C396.44081271 -0.05470025 399.09376831 -0.04306319 401.74780273 -0.02954102 C403.59338587 -0.03223563 405.43896762 -0.03611779 407.2845459 -0.0411377 C411.15150476 -0.04703421 415.0180939 -0.03846492 418.88500977 -0.01977539 C423.84187498 0.00301433 428.79787391 -0.01010795 433.75470734 -0.03406525 C437.56543506 -0.04851912 441.37595738 -0.04391914 445.18669128 -0.03355408 C447.01433922 -0.03088565 448.8420058 -0.03416062 450.66963196 -0.04347229 C453.22418616 -0.05363128 455.77733742 -0.03814702 458.33178711 -0.01586914 C459.08723312 -0.02396606 459.84267914 -0.03206299 460.62101746 -0.04040527 C463.84872658 0.0117458 465.90036553 0.17698017 468.53470516 2.11594391 C470.93424572 5.28430197 470.84696927 7.22690959 470.85621643 11.18188477 C470.86316196 11.85218279 470.87010749 12.52248081 470.87726349 13.2130909 C470.89555312 15.45807337 470.88526474 17.7020014 470.875 19.94702148 C470.8820575 21.55687247 470.8908018 23.16671682 470.90110779 24.77655029 C470.92362952 29.14845193 470.92065583 33.51999203 470.91178632 37.89192963 C470.90668049 41.54024024 470.91396559 45.18848268 470.92125839 48.83678627 C470.93826588 57.44195121 470.9346826 66.04693884 470.91796875 74.65209961 C470.90104045 83.53411525 470.91688964 92.4156397 470.94919163 101.2976017 C470.97586641 108.92064874 470.98316945 116.54354267 470.97467655 124.1666317 C470.96974186 128.72083818 470.97199219 133.27474896 470.99246407 137.82891846 C471.01078857 142.11039948 471.0049027 146.39117234 470.98026466 150.67261505 C470.97524669 152.24479059 470.97877215 153.8170198 470.99141312 155.38915253 C471.00729695 157.53409847 470.9924426 159.67669889 470.96974182 161.8215332 C470.96915551 163.02204315 470.9685692 164.2225531 470.96796513 165.45944214 C470.34155273 168.50170898 470.34155273 168.50170898 468.29612732 170.8883152 C464.60904293 172.90170795 461.53479225 173.05359865 457.44017029 172.9961853 C456.65059482 173.00101413 455.86101936 173.00584296 455.04751736 173.01081812 C452.4048756 173.02207936 449.7632036 173.00477781 447.12060547 172.98754883 C445.22490171 172.98969492 443.32919924 172.99357296 441.4335022 172.99905396 C436.28687005 173.00874922 431.14058469 172.99344208 425.99399447 172.97314787 C420.61067011 172.95558495 415.22735658 172.95910179 409.8440094 172.95986938 C400.80447585 172.95799625 391.76507657 172.94062979 382.72558594 172.91333008 C372.2696655 172.88186967 361.81389209 172.87133421 351.35792774 172.87280118 C341.30442985 172.87402127 331.25097991 172.86381531 321.19749641 172.84721756 C316.91648039 172.84015075 312.63548133 172.8364909 308.35445976 172.83543015 C303.31558337 172.83342314 298.27683072 172.82122881 293.23799515 172.80109787 C291.38685043 172.79524951 289.53569148 172.79279681 287.68453789 172.79395294 C285.16154363 172.79493251 282.63889737 172.78364154 280.11595154 172.76913452 C279.38006048 172.77223173 278.64416942 172.77532893 277.88597864 172.77851999 C274.22296607 172.74363634 271.41551516 172.59852323 268.34155273 170.50170898 C266.24475871 167.80583095 266.34644452 166.40876499 266.52905273 162.93920898 C267.60787218 158.37497288 267.60787218 158.37497288 270.34155273 156.50170898 C272.87286019 156.21355275 275.15675041 156.10967195 277.68766785 156.14094543 C278.81857321 156.13710052 278.81857321 156.13710052 279.97232515 156.13317794 C282.50601696 156.128225 285.03911673 156.14475744 287.57275391 156.16113281 C289.3859811 156.16197876 291.19920932 156.16150457 293.01243591 156.1598053 C297.94194267 156.15894266 302.87123154 156.17661187 307.80068755 156.19752717 C312.94965884 156.21624924 318.09863482 156.21804088 323.24763489 156.22160339 C333.00114068 156.23093702 342.75454589 156.25556862 352.50800735 156.28565186 C365.68562821 156.32541636 378.86327648 156.3416401 392.04094219 156.35915852 C412.80788775 156.38738877 433.57462103 156.44714956 454.34155273 156.50170898 C454.34155273 110.30170898 454.34155273 64.10170898 454.34155273 16.50170898 C426.12655273 16.99670898 426.12655273 16.99670898 397.34155273 17.50170898 C397.67155273 19.48170898 398.00155273 21.46170898 398.34155273 23.50170898 C399.91859095 46.11969985 396.14919077 66.47579614 381.84155273 84.56420898 C370.60106742 97.35049958 354.28817109 108.46364995 336.79296875 109.67871094 C316.37135385 110.14262852 299.19032879 108.25079424 283.09155273 94.18920898 C281.4904056 92.64496854 279.90661957 91.08250514 278.34155273 89.50170898 C277.58229492 88.7759668 276.82303711 88.05022461 276.04077148 87.30249023 C265.66373763 76.746233 259.4051095 62.85472633 256.34155273 48.50170898 C256.00704102 46.95483398 256.00704102 46.95483398 255.66577148 45.37670898 C253.91614013 35.85490571 254.34155273 27.50025813 254.34155273 17.50170898 C232.56155273 17.00670898 232.56155273 17.00670898 210.34155273 16.50170898 C210.67155273 18.48170898 211.00155273 20.46170898 211.34155273 22.50170898 C212.75322721 46.9888317 206.03320629 67.78545476 190.15405273 86.68920898 C177.64052154 100.10889243 159.81769067 109.03644704 141.46264648 109.85327148 C119.19233463 110.37259946 100.77275351 105.12614049 84.34155273 89.50170898 C68.9394718 74.48814901 61.33223067 54.43645456 58.34155273 33.50170898 C58.34155273 27.89170898 58.34155273 22.28170898 58.34155273 16.50170898 C40.52155273 16.50170898 22.70155273 16.50170898 4.34155273 16.50170898 C4.34155273 62.70170898 4.34155273 108.90170898 4.34155273 156.50170898 C30.69256836 156.43209961 30.69256836 156.43209961 57.57592773 156.36108398 C68.67749257 156.34065596 79.77904385 156.32123569 90.88061523 156.30639648 C96.71036829 156.29856475 102.54012092 156.29048275 108.36987305 156.28198242 C109.10055819 156.28092743 109.83124333 156.27987243 110.58407044 156.27878547 C122.38724198 156.2613785 134.19033572 156.22983792 145.9934611 156.1930978 C158.10268845 156.15571865 170.21187502 156.13347956 182.32115769 156.12535501 C189.79592573 156.11986092 197.27047403 156.10249584 204.74517444 156.07004312 C210.4725404 156.04644036 216.1997649 156.04388148 221.9271698 156.04927826 C224.27983709 156.04817464 226.63251244 156.04017613 228.98513031 156.02488708 C232.18951419 156.005078 235.39294662 156.00973709 238.59735107 156.02069092 C239.53509109 156.00903955 240.47283111 155.99738819 241.43898749 155.98538375 C247.68832076 156.04339769 247.68832076 156.04339769 250.92322159 158.31302261 C252.99697514 161.51311883 252.80777142 163.77195949 252.34155273 167.50170898 C250.58140143 170.68674468 249.84264357 171.33467871 246.34155273 172.50170898 C244.90839996 172.5945113 243.47133141 172.63257104 242.03518105 172.63593006 C240.70889795 172.64261683 240.70889795 172.64261683 239.35582125 172.64943868 C238.38356046 172.64925432 237.41129966 172.64906995 236.40957642 172.64888 C235.37740222 172.65255669 234.34522803 172.65623338 233.28177583 172.66002148 C229.80641655 172.67107716 226.33108714 172.67490533 222.85571289 172.67871094 C220.37080286 172.68497404 217.88589377 172.6916207 215.40098572 172.69862366 C207.93311027 172.71786228 200.46524275 172.72845236 192.9973498 172.73735145 C189.48142093 172.74173451 185.96549357 172.74710119 182.44956589 172.75234032 C170.76401647 172.76935016 159.07846799 172.78384551 147.3929081 172.79108906 C144.36081567 172.79299897 141.32872325 172.7949193 138.29663086 172.796875 C137.54301338 172.79735874 136.7893959 172.79784248 136.01294152 172.79834088 C123.7979615 172.8066457 111.58307926 172.83199127 99.36814196 172.86445568 C86.83053328 172.89750643 74.29297434 172.91553592 61.75532186 172.9187333 C54.71451144 172.92089999 47.67384372 172.92967204 40.63307571 172.95519447 C34.01258902 172.97913799 27.39231339 172.98273968 20.7717762 172.97243309 C18.33890365 172.97193577 15.90601875 172.97831364 13.47318459 172.99198914 C10.15764308 173.00958721 6.8430372 173.00266098 3.52749634 172.98945618 C2.55969699 173.00042542 1.59189763 173.01139467 0.59477103 173.02269632 C-3.50089983 172.98318165 -6.0782335 172.80385964 -9.75580692 170.88873577 C-12.28203513 167.7193641 -12.28466582 165.8563429 -12.28663635 161.8215332 C-12.29373074 161.15123518 -12.30082513 160.48093716 -12.3081345 159.79032707 C-12.32573182 157.54509955 -12.30760366 155.30159941 -12.28955078 153.05639648 C-12.29468901 151.44654552 -12.30196956 149.83670018 -12.31123352 148.22686768 C-12.32976833 143.85486321 -12.31679612 139.48346757 -12.29714322 135.11148834 C-12.28077243 130.53826677 -12.28956742 125.96508423 -12.29466248 121.3918457 C-12.2991852 113.71157085 -12.28330258 106.0315394 -12.25537109 98.35131836 C-12.22331833 89.46934838 -12.2233343 80.58781743 -12.24058586 71.70581627 C-12.25644447 63.16492579 -12.2497217 54.62419641 -12.23264885 46.08331299 C-12.22577259 42.44699826 -12.22681668 38.81081245 -12.2341938 35.17449951 C-12.24184971 30.89307214 -12.22975361 26.61214496 -12.20234489 22.33080292 C-12.19545262 20.75863886 -12.19537214 19.18642817 -12.20256042 17.61426544 C-12.21123716 15.46957861 -12.19533254 13.32644183 -12.17311096 11.18188477 C-12.17030404 9.98137482 -12.16749712 8.78086487 -12.16460514 7.54397583 C-10.99122328 0.4913527 -6.25760654 -0.08407054 0 0 Z " fill="#0079FF" transform="translate(26.658447265625,283.498291015625)"/>
<path d="M0 0 C3.22909992 2.20938416 3.88876254 3.46403771 4.6875 7.3125 C3.36759773 14.3919758 -2.8163453 17.8672234 -8.1875 22.1875 C-36.50991807 45.17044581 -54.19693915 76.98190337 -58.25 113.25 C-59.27142922 123.26302539 -59.07448229 133.30348309 -58.75097656 143.35253906 C-58.72745117 144.54588867 -58.70392578 145.73923828 -58.6796875 146.96875 C-58.64601074 148.03544922 -58.61233398 149.10214844 -58.57763672 150.20117188 C-59.10717387 153.71019725 -60.2523551 154.83521784 -63 157 C-65.77104545 157.78476873 -68.19893718 157.62693193 -71 157 C-73.92689941 154.89863632 -74.77913406 153.14586004 -75.45703125 149.62890625 C-75.79165721 146.4120354 -75.91959731 143.23358625 -76 140 C-76.02046387 139.34306152 -76.04092773 138.68612305 -76.06201172 138.00927734 C-76.80571891 111.68450134 -72.27406685 87.24916642 -62 63 C-65.96146939 67.40135442 -69.38673288 71.82622727 -72.375 76.9375 C-72.75438721 77.58009766 -73.13377441 78.22269531 -73.5246582 78.88476562 C-89.93650914 107.07589765 -108.17554237 150.25851335 -101.46875 183.64453125 C-99.82838098 189.59086896 -97.6126163 194.3873837 -93.1875 198.8125 C-89.45414775 200.83917694 -86.07390683 201.58534567 -81.91015625 200.41015625 C-77.61482993 198.54644856 -74.79180634 196.39292133 -72.671875 192.05078125 C-71.38455506 188.12146167 -71.21808348 184.10510082 -71 180 C-70.58002148 172.68743287 -70.58002148 172.68743287 -68.3125 170 C-65.2481637 168.6748816 -63.3125739 168.52677516 -60 169 C-56.98180819 170.81091509 -55.30047893 171.86654782 -54.3828125 175.328125 C-52.83786354 186.11123815 -54.41995097 196.29501163 -60.75 205.375 C-67.05134783 212.95237077 -74.32085559 216.97039405 -84.09765625 218.28125 C-91.77810604 218.64771281 -99.0970306 215.77261356 -105 211 C-115.08849348 201.22615739 -118.92768264 190.73284957 -119.3125 176.8125 C-118.57208155 134.05333431 -104.39640836 88.84827713 -78 55 C-77.04287109 53.73736328 -77.04287109 53.73736328 -76.06640625 52.44921875 C-58.98970453 30.65947648 -37.62655259 14.98534178 -13.25 2.25 C-12.60699951 1.90243652 -11.96399902 1.55487305 -11.30151367 1.19677734 C-7.13469974 -0.90231503 -4.48095668 -1.33779286 0 0 Z " fill="#0079FF" transform="translate(439,117)"/>
<path d="M0 0 C2.39216609 1.5947774 2.88287964 2.65764819 3.8125 5.375 C4.04631187 8.64836615 3.52347258 10.08107774 2 13 C-0.00646464 14.92688814 -1.96001794 16.65106103 -4.125 18.375 C-5.31414643 19.35114316 -6.50294988 20.3277043 -7.69140625 21.3046875 C-8.2652002 21.77100586 -8.83899414 22.23732422 -9.43017578 22.71777344 C-12.69955729 25.38819205 -15.85289444 28.18756798 -19 31 C-19.9590625 31.85464844 -20.918125 32.70929688 -21.90625 33.58984375 C-27.65959919 38.75860884 -33.11214961 43.99117565 -38 50 C-38.42216797 50.50450684 -38.84433594 51.00901367 -39.27929688 51.52880859 C-62.95475586 79.82406736 -78.25459073 112.47507747 -84 149 C-84.11714355 149.74185547 -84.23428711 150.48371094 -84.35498047 151.24804688 C-88.85401573 181.43770994 -85.80047468 212.58303751 -80.28588867 242.41088867 C-77.69140633 256.7692695 -78.41320086 270.19727646 -86 283 C-89.71013399 285.47342266 -91.61060262 285.38503486 -96 285 C-98.375 283.875 -98.375 283.875 -100 282 C-101.75885028 275.71188241 -99.55885734 271.62822624 -97.12890625 265.828125 C-94.50186693 256.91982556 -96.44215024 248.18278595 -98.02334595 239.20205688 C-108.93533268 176.68943169 -102.90878874 116.63082631 -69 62 C-70.34439058 61.88403413 -70.34439058 61.88403413 -72 63.9375 C-72.44859375 64.39769531 -72.8971875 64.85789062 -73.359375 65.33203125 C-74.56157236 66.55426523 -75.78323696 67.75743265 -77.015625 68.94921875 C-82.14567932 73.94474368 -86.72208158 79.18677026 -91.15234375 84.8125 C-93.64849977 87.76777986 -94.47254881 87.95116193 -98.375 88.3125 C-102 88 -102 88 -104.4375 86.5 C-106.59307506 83.0510799 -106.70055972 79.9167863 -106 76 C-104.6156962 73.41159336 -102.77035941 71.42603057 -100.75 69.3125 C-100.20931885 68.71727539 -99.6686377 68.12205078 -99.11157227 67.50878906 C-97.98218378 66.27030541 -96.84410684 65.03969258 -95.69775391 63.81689453 C-94.07941867 62.08499191 -92.49454458 60.32848962 -90.91796875 58.55859375 C-72.31280611 37.79463629 -49.56106207 21.26687495 -25.05566406 8.10546875 C-23.65010026 7.34960261 -22.24856258 6.58621438 -20.85058594 5.81640625 C-18.72315993 4.64885801 -16.58316096 3.50862295 -14.4375 2.375 C-13.79498291 2.01970215 -13.15246582 1.6644043 -12.49047852 1.29833984 C-7.938492 -1.04512768 -4.93941854 -1.23638481 0 0 Z " fill="#0079FF" transform="translate(283,57)"/>
<path d="M0 0 C2.6985504 2.26330033 2.96038493 3.63851246 3.34375 7.13671875 C2.90452677 12.07298896 1.10658178 15.0239936 -1.4375 19.1875 C-23.71647861 57.73040945 -45.01520222 117.84422072 -36.24609375 162.87109375 C-33.2177957 173.14355575 -28.91983223 181.72765326 -19.171875 187.09765625 C-15.44366849 188.64660536 -11.5213149 189.39406311 -7.57421875 190.19140625 C-5 191 -5 191 -3 194 C-2.57208219 197.92257996 -2.36586527 200.10751408 -4.6875 203.375 C-8.72319727 206.21089538 -12.43884422 206.20268299 -17.1875 205.375 C-28.90938645 202.99596122 -37.97841296 196.78424196 -44.6875 186.9375 C-62.38980337 157.60919877 -53.15211185 117.7238317 -45.62109375 86.41796875 C-38.46706285 57.76298803 -28.47185043 30.04376195 -13.42578125 4.50390625 C-13.05493408 3.87427979 -12.68408691 3.24465332 -12.30200195 2.59594727 C-8.8251928 -1.66580062 -5.03829309 -1.28247461 0 0 Z " fill="#0079FF" transform="translate(173,154)"/>
<path d="M0 0 C3.16876063 7.45590737 2.45760451 17.26052348 2.8125 25.25 C2.88082031 26.45527344 2.94914062 27.66054687 3.01953125 28.90234375 C3.06980469 30.06378906 3.12007813 31.22523438 3.171875 32.421875 C3.22311523 33.46956055 3.27435547 34.51724609 3.32714844 35.59667969 C3.01810695 38.98701301 2.07638851 40.78362051 0.0625 43.5 C-3.02923752 45.04586876 -5.53179552 44.79359521 -8.9375 44.5 C-11.79061656 42.3368189 -12.81127412 40.95965272 -13.765625 37.484375 C-13.90484375 36.41703125 -14.0440625 35.3496875 -14.1875 34.25 C-14.33703125 33.17234375 -14.4865625 32.0946875 -14.640625 30.984375 C-14.73859375 30.16453125 -14.8365625 29.3446875 -14.9375 28.5 C-33.90448239 54.42413371 -49.38043694 82.94586525 -58.5559082 113.83837891 C-60.45938788 120.00208442 -60.45938788 120.00208442 -62.91796875 122.5625 C-66.04858652 124.01578484 -68.5426922 123.86372941 -71.9375 123.5 C-74.375 122.5625 -74.375 122.5625 -75.9375 120.5 C-76.83592819 113.93972973 -75.28321929 108.13890838 -73.125 102 C-72.66347534 100.65736084 -72.66347534 100.65736084 -72.19262695 99.28759766 C-61.72404961 69.68468841 -47.00504687 42.41683293 -27.9375 17.5 C-28.60265625 17.57710205 -29.2678125 17.6542041 -29.953125 17.73364258 C-46.29904056 19.57898549 -46.29904056 19.57898549 -50.5 16.8125 C-52.13244274 14.18639646 -52.86183856 12.60211915 -52.9375 9.5 C-51.31594371 6.01365399 -50.17296708 4.65697806 -46.9375 2.5 C-44.22545078 1.97270295 -41.56627473 1.53922113 -38.83203125 1.17578125 C-38.03399582 1.06525925 -37.23596039 0.95473724 -36.41374207 0.84086609 C-34.72387318 0.60928952 -33.03344625 0.38175445 -31.3425293 0.15795898 C-28.77516357 -0.18414691 -26.21098243 -0.54530013 -23.64648438 -0.90820312 C-22.00015776 -1.13137525 -20.35367735 -1.35341625 -18.70703125 -1.57421875 C-17.94840286 -1.68247482 -17.18977448 -1.7907309 -16.40815735 -1.90226746 C-4.44046104 -3.43777629 -4.44046104 -3.43777629 0 0 Z " fill="#0079FF" transform="translate(347.9375,109.5)"/>
</svg>
