<?xml version="1.0" encoding="UTF-8"?>
<svg version="1.1" xmlns="http://www.w3.org/2000/svg" width="512" height="512">
<path d="M0 0 C1.89050257 3.15083762 1.71234817 6.36246926 1.125 9.875 C-0.36438213 13.14619049 -2.36781172 15.97832266 -4.4453125 18.90234375 C-5.02884491 19.75522476 -5.61237732 20.60810577 -6.21359253 21.48683167 C-8.12572348 24.27396102 -10.0627938 27.04275581 -12 29.8125 C-13.34185585 31.76033415 -14.68168043 33.70956911 -16.01953125 35.66015625 C-18.71074399 39.58156462 -21.40960703 43.4975176 -24.11425781 47.40966797 C-28.6859337 54.03608294 -33.15277099 60.72947908 -37.59558105 67.44268799 C-44.05733205 77.20189869 -50.57295047 86.92485908 -57.1171875 96.62890625 C-58.05623428 98.02167534 -58.05623428 98.02167534 -59.01425171 99.44258118 C-62.17629084 104.13011138 -65.34344735 108.81407387 -68.51904297 113.49243164 C-73.74584524 121.20126183 -78.95318052 128.90647985 -83.890625 136.8046875 C-84.61042255 137.94158918 -85.33061736 139.07823946 -86.05126953 140.21459961 C-87.29161549 142.18637985 -88.50893765 144.17297266 -89.69482422 146.17797852 C-94.67640114 154.04839119 -100.6113166 155.62258599 -109.35546875 157.703125 C-110.69544922 157.91195312 -110.69544922 157.91195312 -112.0625 158.125 C-113.44501953 158.34929687 -113.44501953 158.34929687 -114.85546875 158.578125 C-115.52191406 158.67609375 -116.18835938 158.7740625 -116.875 158.875 C-117.535 161.845 -118.195 164.815 -118.875 167.875 C-117.885 167.545 -116.895 167.215 -115.875 166.875 C-114.46835074 166.73007877 -113.0568867 166.62871069 -111.64453125 166.55859375 C-110.44086914 166.49575195 -110.44086914 166.49575195 -109.21289062 166.43164062 C-108.37951172 166.39232422 -107.54613281 166.35300781 -106.6875 166.3125 C-105.84251953 166.26931641 -104.99753906 166.22613281 -104.12695312 166.18164062 C-102.04315567 166.07568482 -99.95909897 165.9748498 -97.875 165.875 C-97.4723291 165.01285889 -97.4723291 165.01285889 -97.06152344 164.13330078 C-95.84196064 161.81211644 -94.46708043 159.8359624 -92.890625 157.7421875 C-91.99283325 156.54638062 -91.99283325 156.54638062 -91.0769043 155.32641602 C-90.43277588 154.47619873 -89.78864746 153.62598145 -89.125 152.75 C-88.45831299 151.86562256 -87.79162598 150.98124512 -87.10473633 150.07006836 C-80.95773493 141.937637 -74.70205929 133.89159532 -68.42382812 125.86035156 C-60.72214486 115.98801734 -53.15103575 106.01306071 -45.54833984 96.06445312 C-42.28566502 91.79546162 -39.02134813 87.52772566 -35.75732422 83.25976562 C-33.01083561 79.66839457 -30.26477402 76.07669849 -27.51953125 72.484375 C-21.84398284 65.0584238 -16.15879536 57.64022047 -10.45703125 50.234375 C-5.24655679 43.46055491 -0.06390501 36.66534472 5.125 29.875 C6.24737255 28.40623221 7.36976831 26.93748215 8.4921875 25.46875 C9.04285889 24.74800293 9.59353027 24.02725586 10.16088867 23.28466797 C11.25366572 21.85573881 12.34756181 20.42766469 13.44262695 19.00048828 C15.98086794 15.69128805 18.5044876 12.37375117 20.98828125 9.0234375 C21.43534424 8.4262793 21.88240723 7.82912109 22.34301758 7.21386719 C23.53655103 5.61824639 24.72174142 4.01639431 25.90625 2.4140625 C28.16543758 -0.1712754 30.03448371 -1.65738043 33.125 -3.125 C36.64849544 -3.05309193 38.5590868 -2.49731132 41.5 -0.5625 C43.78861765 2.87042647 43.91008672 5.92571017 43.125 9.875 C41.41826422 13.02968451 39.19456516 15.65119527 36.875 18.375 C35.57673038 19.96761415 34.27987956 21.56138582 32.984375 23.15625 C32.33146484 23.94902344 31.67855469 24.74179687 31.00585938 25.55859375 C28.27495495 28.9218883 25.69756286 32.39007219 23.125 35.875 C18.92630754 41.51618374 14.64520633 47.0861831 10.3125 52.625 C5.27416776 59.06679272 0.32853177 65.57070688 -4.5625 72.125 C-9.23782938 78.38880759 -13.96513259 84.59888662 -18.81762695 90.72631836 C-24.03494479 97.32041503 -29.12102358 104.01423352 -34.21777344 110.70166016 C-36.93294637 114.26242466 -39.65422546 117.81851506 -42.375 121.375 C-45.66084915 125.67134569 -48.94625744 129.96802715 -52.23046875 134.265625 C-57.8946374 141.67668679 -63.56412871 149.0833305 -69.26171875 156.46875 C-71.25767216 159.06231764 -73.23447948 161.66984453 -75.20703125 164.28125 C-75.78388672 165.04244141 -76.36074219 165.80363281 -76.95507812 166.58789062 C-78.08061284 168.07379947 -79.20318252 169.56196059 -80.32226562 171.05273438 C-88.07912867 181.27637622 -88.07912867 181.27637622 -92.875 182.875 C-95.36099083 183.16563198 -97.83555281 183.41510802 -100.328125 183.63110352 C-101.08452271 183.69952454 -101.84092041 183.76794556 -102.62023926 183.83843994 C-105.12152499 184.063778 -107.62323895 184.28391321 -110.125 184.50390625 C-111.86232955 184.65914074 -113.59963394 184.81465705 -115.33691406 184.97044373 C-118.97832246 185.29623108 -122.61993221 185.61962979 -126.26171875 185.94116211 C-130.93286388 186.35362121 -135.60361073 186.77039521 -140.27423096 187.18875217 C-143.86171316 187.50988583 -147.44932574 187.82954129 -151.0369873 188.14866447 C-152.75942379 188.30190052 -154.48183602 188.45540938 -156.20422363 188.6091938 C-158.60998742 188.82360873 -161.01590279 189.03622924 -163.421875 189.24829102 C-164.13573364 189.31217514 -164.84959229 189.37605927 -165.58508301 189.44187927 C-168.36142716 189.68500329 -171.08618598 189.875 -173.875 189.875 C-173.875 192.515 -173.875 195.155 -173.875 197.875 C-173.17793945 197.91463867 -172.48087891 197.95427734 -171.76269531 197.99511719 C-168.21648509 198.19998921 -164.67064829 198.41065804 -161.125 198.625 C-160.44815155 198.66590759 -159.7713031 198.70681519 -159.07394409 198.7489624 C-148.87132881 199.37281096 -138.67907427 200.10476397 -128.48828125 200.8984375 C-126.75380234 201.03348694 -126.75380234 201.03348694 -124.98428345 201.17126465 C-119.16837489 201.62587133 -113.35301614 202.08676417 -107.53808594 202.55371094 C-105.36002873 202.72594541 -103.18196894 202.89814734 -101.00390625 203.0703125 C-100.01433426 203.15147308 -99.02476227 203.23263367 -98.00520325 203.31625366 C-87.71704648 204.71716966 -87.71704648 204.71716966 -78.2734375 202.1875 C-77.60570312 201.424375 -76.93796875 200.66125 -76.25 199.875 C-75.50234375 199.04742187 -74.7546875 198.21984375 -73.984375 197.3671875 C-73.28828125 196.54476562 -72.5921875 195.72234375 -71.875 194.875 C-70.75027882 193.58309054 -69.62529485 192.2914098 -68.5 191 C-67.94570313 190.35289062 -67.39140625 189.70578125 -66.8203125 189.0390625 C-64.43475472 186.38524922 -61.91423284 183.87999984 -59.375 181.375 C-56.25920505 178.30109809 -53.21622742 175.20797832 -50.375 171.875 C-47.0919922 168.02377931 -43.52095488 164.4921114 -39.921875 160.94140625 C-37.29476442 158.33594768 -34.77506916 155.69046575 -32.375 152.875 C-29.0919922 149.02377931 -25.52095488 145.4921114 -21.921875 141.94140625 C-19.29476442 139.33594768 -16.77506916 136.69046575 -14.375 133.875 C-11.0919922 130.02377931 -7.52095488 126.4921114 -3.921875 122.94140625 C-1.29476442 120.33594768 1.22493084 117.69046575 3.625 114.875 C6.9080078 111.02377931 10.47904512 107.4921114 14.078125 103.94140625 C16.70523558 101.33594768 19.22493084 98.69046575 21.625 95.875 C24.9080078 92.02377931 28.47904512 88.4921114 32.078125 84.94140625 C35.30351826 81.7425959 38.30210776 78.42740608 41.24609375 74.97265625 C44.07576268 71.81354562 47.11052163 68.86337739 50.13305664 65.89086914 C52.75324039 63.29889365 55.22448138 60.66084756 57.5625 57.8125 C59.89470311 55.13899887 60.96465236 54.13548547 64.125 52.875 C67.64967729 53.02186155 69.5775643 53.47551989 72.4375 55.5625 C74.58186421 58.50107317 75.125 60.22881106 75.125 63.875 C72.54590399 68.29630744 69.48372142 71.70859546 65.8125 75.25 C62.62686575 78.35998595 59.51009244 81.47995176 56.625 84.875 C53.3419922 88.72622069 49.77095488 92.2578886 46.171875 95.80859375 C43.54476442 98.41405232 41.02506916 101.05953425 38.625 103.875 C35.3419922 107.72622069 31.77095488 111.2578886 28.171875 114.80859375 C25.54476442 117.41405232 23.02506916 120.05953425 20.625 122.875 C17.3419922 126.72622069 13.77095488 130.2578886 10.171875 133.80859375 C7.54476442 136.41405232 5.02506916 139.05953425 2.625 141.875 C-0.6580078 145.72622069 -4.22904512 149.2578886 -7.828125 152.80859375 C-10.45523558 155.41405232 -12.97493084 158.05953425 -15.375 160.875 C-18.6580078 164.72622069 -22.22904512 168.2578886 -25.828125 171.80859375 C-28.45523558 174.41405232 -30.97493084 177.05953425 -33.375 179.875 C-36.6580078 183.72622069 -40.22904512 187.2578886 -43.828125 190.80859375 C-47.05351826 194.0074041 -50.05210776 197.32259392 -52.99609375 200.77734375 C-55.37563504 203.43392103 -57.89964527 205.93395778 -60.4375 208.4375 C-63.57117531 211.53243482 -66.60877143 214.62355192 -69.4375 218 C-71.875 220.875 -71.875 220.875 -73.875 221.875 C-76.3345167 221.9909102 -78.75496338 222.04053996 -81.21484375 222.03125 C-82.33958351 222.02865173 -82.33958351 222.02865173 -83.48704529 222.02600098 C-92.83491365 221.93920743 -102.12657627 221.15141692 -111.4375 220.375 C-113.23888257 220.22985029 -115.04031482 220.08531597 -116.84179688 219.94140625 C-121.18680084 219.59299563 -125.53105641 219.23638125 -129.875 218.875 C-130.71160582 227.42588974 -131.08621763 235.9097053 -131.125 244.5 C-131.145625 245.64984375 -131.16625 246.7996875 -131.1875 247.984375 C-131.22976181 257.26084311 -130.03222308 265.27539087 -124.8125 273.125 C-119.03436618 281.88776783 -118.59788297 291.37327897 -120.33984375 301.60546875 C-122.28606829 308.29633538 -126.03081965 312.99905126 -131.8125 316.8125 C-139.41347024 319.49817615 -149.07354762 319.18469358 -156.375 315.875 C-165.87094437 310.20577948 -169.6727342 302.20958509 -172.875 291.875 C-174.42496373 285.38796023 -174.16338339 278.75830627 -174.1875 272.125 C-174.19045074 271.41613647 -174.19340149 270.70727295 -174.19644165 269.97692871 C-174.21253691 252.90057725 -173.64476434 231.41452869 -165.875 215.875 C-167.48568359 215.81892578 -167.48568359 215.81892578 -169.12890625 215.76171875 C-170.5651362 215.69600888 -172.00133262 215.62956332 -173.4375 215.5625 C-174.49420898 215.52866211 -174.49420898 215.52866211 -175.57226562 215.49414062 C-180.63041805 215.23773658 -184.36791611 214.22425222 -188.875 211.875 C-190.06893619 209.48712762 -190.02061644 207.9711943 -190.05200195 205.30517578 C-190.06483719 204.35724152 -190.07767242 203.40930725 -190.09089661 202.43264771 C-190.09828354 201.40557709 -190.10567047 200.37850647 -190.11328125 199.3203125 C-190.121353 198.26721893 -190.12942474 197.21412537 -190.13774109 196.12911987 C-190.15158695 193.89810842 -190.16230685 191.66707573 -190.17016602 189.43603516 C-190.18739531 186.02075222 -190.23127966 182.60643299 -190.27539062 179.19140625 C-190.28551586 177.0260488 -190.29403249 174.86068311 -190.30078125 172.6953125 C-190.31828934 171.67229034 -190.33579742 170.64926819 -190.35383606 169.59524536 C-190.33268228 162.69547155 -190.33268228 162.69547155 -188.45019531 159.32080078 C-184.55823235 157.1357226 -180.62052191 156.61448126 -176.24609375 155.921875 C-154.51267047 153.16592903 -154.51267047 153.16592903 -137.08203125 141.94140625 C-134.59276267 137.02693906 -133.26749303 131.79698665 -131.94628906 126.46777344 C-130.09150976 120.24741514 -127.04962248 114.6205406 -124.06762695 108.87545776 C-123.00275564 106.81782467 -121.95857883 104.75090555 -120.91992188 102.67993164 C-114.97160134 90.84776216 -108.58894072 79.29038509 -101.875 67.875 C-101.34358398 66.96733887 -100.81216797 66.05967773 -100.26464844 65.12451172 C-97.27421143 60.02992734 -94.23808988 54.96784059 -91.13525391 49.94091797 C-90.02180306 48.11565236 -88.95087682 46.2645928 -87.88671875 44.41015625 C-84.14674781 38.28004297 -84.14674781 38.28004297 -80.59375 37.1484375 C-76.86042384 36.91813491 -74.54062641 37.48536503 -71.3125 39.375 C-69.32445065 42.83247713 -69.42307053 46.01127076 -69.875 49.875 C-70.85882057 52.45630965 -71.83177017 54.64243964 -73.13671875 57.0390625 C-73.47886917 57.70083496 -73.82101959 58.36260742 -74.17353821 59.04443359 C-74.90842415 60.46426127 -75.6500154 61.88063513 -76.39770508 63.29376221 C-78.39209816 67.07134169 -80.3263048 70.87945282 -82.26171875 74.6875 C-82.65495331 75.45945709 -83.04818787 76.23141418 -83.45333862 77.02676392 C-87.18938766 84.4059669 -90.61111453 91.90149683 -93.875 99.5 C-94.26797272 100.41404602 -94.26797272 100.41404602 -94.66888428 101.34655762 C-99.81096905 113.36704672 -104.45893222 125.57123337 -108.875 137.875 C-104.63229402 136.46076467 -103.24796596 133.35814161 -100.9140625 129.7578125 C-100.42032135 129.01088135 -99.9265802 128.2639502 -99.4178772 127.49438477 C-98.3403757 125.86252577 -97.26655283 124.22823339 -96.19592285 122.59185791 C-93.88362107 119.05799571 -91.55385754 115.53577715 -89.22485352 112.01290894 C-87.99465676 110.15193007 -86.76534464 108.29036615 -85.53686523 106.42825317 C-79.40895725 97.14604689 -73.19102722 87.92566159 -66.9597168 78.712677 C-57.59135253 64.86130423 -48.26065404 50.98611502 -39 37.0625 C-32.74565515 27.6619318 -26.4737942 18.27464605 -20.125 8.9375 C-19.51027832 8.03088623 -18.89555664 7.12427246 -18.26220703 6.19018555 C-17.70645996 5.37590088 -17.15071289 4.56161621 -16.578125 3.72265625 C-16.10020508 3.02148682 -15.62228516 2.32031738 -15.12988281 1.59790039 C-13.65749815 -0.42362072 -12.45121991 -1.87804861 -10.125 -2.875 C-6.29845491 -3.30017168 -3.24638872 -1.94783323 0 0 Z M-160 168.875 C-161.13115234 169.16117188 -161.13115234 169.16117188 -162.28515625 169.453125 C-164.14897199 169.92497709 -166.01205646 170.399716 -167.875 170.875 C-167.875 171.205 -167.875 171.535 -167.875 171.875 C-159.46 171.38 -159.46 171.38 -150.875 170.875 C-150.545 169.555 -150.215 168.235 -149.875 166.875 C-153.33934595 166.875 -156.65872505 168.02092626 -160 168.875 Z M-148.875 216.875 C-149.84465944 220.74725243 -150.7985135 224.62324569 -151.75 228.5 C-152.01941406 229.57507813 -152.28882813 230.65015625 -152.56640625 231.7578125 C-155.73157767 244.72729539 -157.22273987 257.27613852 -157.1875 270.625 C-157.20361328 271.86121094 -157.21972656 273.09742188 -157.23632812 274.37109375 C-157.27323153 287.13136097 -157.27323153 287.13136097 -151.25 297.9375 C-150.074375 298.8965625 -150.074375 298.8965625 -148.875 299.875 C-148.545 300.205 -148.215 300.535 -147.875 300.875 C-143.82698727 301.28819366 -143.82698727 301.28819366 -139.875 300.875 C-137.20842706 298.19028711 -136.40507386 296.05865566 -136.3125 292.3125 C-136.46455392 286.86256741 -138.51875494 283.22135701 -141.27734375 278.6171875 C-145.92616774 270.63803238 -147.99943079 263.00871312 -148.0078125 253.80859375 C-148.00876923 253.13385513 -148.00972595 252.45911652 -148.01071167 251.76393127 C-148.01139002 250.33765571 -148.00955984 248.911377 -148.00537109 247.48510742 C-148.00007667 245.34351311 -148.0052972 243.20213421 -148.01171875 241.06054688 C-148.01524315 232.95689104 -147.71963024 224.941315 -146.875 216.875 C-147.535 216.875 -148.195 216.875 -148.875 216.875 Z " fill="#0079FF" transform="translate(405.875,34.125)"/>
<path d="M0 0 C5.46308352 4.41199144 8.11793079 8.37768926 9.64453125 15.328125 C9.62109375 18.6953125 9.62109375 18.6953125 9.26953125 22.203125 C7.65236195 42.22052544 7.21687295 64.46105272 20.83203125 80.765625 C28.3029082 88.44608101 36.9900116 91.76364714 47.64453125 92.328125 C56.17903492 91.82830048 64.02063213 88.4073316 69.95703125 82.203125 C76.93814344 73.18585509 78.12313814 61.7793151 77.49609375 50.70703125 C76.25911979 42.33684077 71.70503551 34.50897861 67.44921875 27.3046875 C65.33546323 22.11264723 65.84243746 15.19014148 67.33203125 9.875 C70.05446807 3.93101294 74.59553061 -0.14950323 80.64453125 -2.671875 C82.97663879 -2.93257141 82.97663879 -2.93257141 85.57739258 -2.9465332 C87.04460503 -2.96083122 87.04460503 -2.96083122 88.54145813 -2.97541809 C90.11808479 -2.97405098 90.11808479 -2.97405098 91.7265625 -2.97265625 C92.81410324 -2.97694138 93.90164398 -2.9812265 95.0221405 -2.98564148 C97.32277735 -2.99138305 99.62343235 -2.99188632 101.92407227 -2.98754883 C105.43342336 -2.98439621 108.94192544 -3.00782558 112.45117188 -3.03320312 C114.68880102 -3.03547694 116.92643243 -3.03617923 119.1640625 -3.03515625 C120.20907425 -3.044366 121.254086 -3.05357574 122.33076477 -3.06306458 C131.29978534 -3.00649688 137.04301666 -1.12335517 143.64453125 5.328125 C146.85761737 10.39148439 147.00097743 14.32194784 146.796875 20.1015625 C146.76863422 21.83202725 146.74064799 23.56249618 146.71289062 25.29296875 C146.65133362 27.982499 146.5829128 30.67166074 146.50756836 33.36083984 C146.0464605 51.20025997 147.94588651 66.93826534 159.01953125 81.703125 C166.09239465 88.7759884 174.67805496 92.15574884 184.64453125 92.328125 C193.47069039 91.74745664 201.49234335 88.98838653 207.49609375 82.25 C213.02500948 74.46049311 215.20359025 66.36836785 215.08203125 56.890625 C215.07445801 56.05660156 215.06688477 55.22257812 215.05908203 54.36328125 C214.88781345 47.96258681 213.81965931 42.94491689 210.64453125 37.328125 C209.86916016 35.89339844 209.86916016 35.89339844 209.078125 34.4296875 C208.04485263 32.53245005 206.99206818 30.64561951 205.9140625 28.7734375 C203.35264794 23.839759 202.83480436 18.81406789 204.10546875 13.34375 C206.14225271 7.16151161 209.57239268 2.3312181 215.04467773 -1.23681641 C220.07157864 -3.24075832 224.6684073 -3.15876994 230.03515625 -3.17578125 C231.13494812 -3.18576645 232.23473999 -3.19575165 233.36785889 -3.20603943 C235.69100189 -3.22119788 238.01420994 -3.22826593 240.33740234 -3.2277832 C243.86927591 -3.2343282 247.39831285 -3.28879315 250.9296875 -3.34570312 C253.19400087 -3.35450943 255.45832751 -3.36046081 257.72265625 -3.36328125 C258.76778381 -3.3848378 259.81291138 -3.40639435 260.88970947 -3.42860413 C268.47302705 -3.35867646 273.67231071 -1.38597098 279.64453125 3.328125 C284.77132985 8.84789428 284.76882962 14.61602533 284.63671875 21.79296875 C284.61917773 23.49804067 284.60227189 25.20311922 284.5859375 26.90820312 C284.55522796 29.57384012 284.51999687 32.23913638 284.47314453 34.90454102 C284.17724934 52.69648641 285.75283101 70.03880264 298.6796875 83.64453125 C306.17083748 90.06338938 315.78125143 92.61564078 325.53515625 92.20703125 C334.37916215 91.00889079 341.83558071 86.51215118 347.359375 79.48046875 C353.28160324 69.56208651 354.04759898 57.700149 352.171875 46.5078125 C350.71546788 40.94381403 348.04173961 36.41076069 345.0078125 31.5625 C341.47756072 25.77652859 340.81216003 19.97681856 341.64453125 13.328125 C343.70948279 6.91003237 347.53199103 2.15903101 353.3671875 -1.2734375 C364.81167997 -6.15678471 377.49858355 -1.61979977 388.68359375 1.875 C393.82623392 3.45644524 398.78389084 4.24073819 404.1484375 4.7109375 C407.36989143 5.50747854 408.63445099 6.71919866 410.64453125 9.328125 C411.17578125 11.328125 411.17578125 11.328125 411.14453125 13.328125 C411.16 14.318125 411.16 14.318125 411.17578125 15.328125 C410.38188786 18.31690013 409.1033908 19.48297096 406.64453125 21.328125 C394.24232522 23.66664239 381.31229959 19.21738111 369.64453125 15.328125 C368.08334697 15.26071635 366.51950605 15.24298044 364.95703125 15.265625 C364.14878906 15.27464844 363.34054687 15.28367187 362.5078125 15.29296875 C361.89292969 15.30457031 361.27804687 15.31617188 360.64453125 15.328125 C359.75511992 18.27722571 359.36844108 19.74883763 360.71875 22.58203125 C361.25113281 23.34386719 361.78351563 24.10570312 362.33203125 24.890625 C370.91186949 38.21930395 372.80569159 55.03549312 369.99609375 70.48828125 C366.8213501 83.60784154 360.84292195 94.49080039 349.64453125 102.328125 C336.83603932 109.39590751 323.47623676 111.49211394 309.046875 108.609375 C306.13680344 107.6781521 303.41556925 106.61226456 300.64453125 105.328125 C299.86078125 104.9775 299.07703125 104.626875 298.26953125 104.265625 C284.44388795 97.35280335 276.09266644 85.40408995 270.64453125 71.328125 C267.75896661 62.44393844 266.4816061 53.905123 266.58203125 44.5859375 C266.58771118 43.37247147 266.58771118 43.37247147 266.59350586 42.13449097 C266.60563644 39.57397914 266.62428665 37.01358471 266.64453125 34.453125 C266.67103097 31.05989929 266.6910346 27.66672705 266.70703125 24.2734375 C266.71532959 23.49122833 266.72362793 22.70901917 266.73217773 21.90310669 C266.74072693 20.04456948 266.69790836 18.18591523 266.64453125 16.328125 C265.6726373 15.13721545 265.6726373 15.13721545 263.89183044 15.20787048 C262.74932579 15.2112014 262.74932579 15.2112014 261.58374023 15.21459961 C260.72292343 15.21467514 259.86210663 15.21475067 258.97520447 15.21482849 C257.57208763 15.22257042 257.57208763 15.22257042 256.140625 15.23046875 C254.71110252 15.23259117 254.71110252 15.23259117 253.25270081 15.23475647 C250.1957796 15.24037348 247.13893048 15.25292884 244.08203125 15.265625 C242.01497501 15.27063781 239.94791763 15.27520109 237.88085938 15.27929688 C232.80205537 15.29034844 227.72330555 15.30762445 222.64453125 15.328125 C221.52236609 18.70334435 221.56239667 19.15369272 223.19140625 22.61328125 C224.26732796 24.49812204 225.37665951 26.36065793 226.48828125 28.22460938 C231.6402615 37.2499081 233.18997607 46.4022292 233.08203125 56.703125 C233.0759082 57.70609619 233.06978516 58.70906738 233.06347656 59.74243164 C232.89874222 67.57808423 231.79161276 74.09093406 228.64453125 81.328125 C228.22880859 82.41867187 228.22880859 82.41867187 227.8046875 83.53125 C222.94736555 94.90230784 212.54389552 103.16798889 201.33203125 107.703125 C187.30509301 111.97765932 172.42619125 110.2371817 159.5 103.75 C144.64856338 95.61925048 136.65703502 83.36023158 131.64453125 67.328125 C128.7744801 55.74662447 128.28340866 44.76013491 128.51953125 32.890625 C128.55467887 30.51190115 128.58532482 28.13322545 128.61087036 25.75437927 C128.62778503 24.29193943 128.65087568 22.82955473 128.68087769 21.36732483 C128.70613228 19.68773772 128.68056108 18.00751552 128.64453125 16.328125 C126.695892 14.37948575 123.74644405 15.1989376 121.15332031 15.18917847 C119.78771973 15.19221481 119.78771973 15.19221481 118.39453125 15.1953125 C117.46608398 15.19435577 116.53763672 15.19339905 115.58105469 15.19241333 C113.6139316 15.19173145 111.64680629 15.19358628 109.6796875 15.19775391 C106.65750099 15.20310205 103.6354631 15.19780918 100.61328125 15.19140625 C98.70703092 15.19206703 96.80078068 15.19334819 94.89453125 15.1953125 C93.98413086 15.19328827 93.07373047 15.19126404 92.13574219 15.18917847 C88.06789447 14.78921168 88.06789447 14.78921168 84.64453125 16.328125 C84.82218129 20.68055093 85.4814722 23.36546865 87.95703125 26.953125 C96.34420921 39.64328991 96.92506141 56.42442178 94.43359375 71.0078125 C92.32394901 79.88503045 88.65215361 87.47289255 82.64453125 94.328125 C81.89429688 95.23498047 81.89429688 95.23498047 81.12890625 96.16015625 C74.57401731 103.46281165 64.29135695 108.54043521 54.51855469 109.54711914 C37.80067636 110.41339605 24.29481446 107.04724974 10.95703125 96.578125 C-2.16923224 84.65356169 -7.84805361 66.51110552 -9.35546875 49.328125 C-9.48748627 46.11821319 -9.49790639 42.91538728 -9.48046875 39.703125 C-9.47853516 38.8359082 -9.47660156 37.96869141 -9.47460938 37.07519531 C-9.42622495 29.79334002 -9.0279049 22.58082917 -8.35546875 15.328125 C-15.55488728 14.61998547 -20.9993796 16.01865825 -27.73046875 18.328125 C-42.10787944 23.18524439 -42.10787944 23.18524439 -49.35546875 21.328125 C-51.72149682 19.47574747 -53.10757274 18.26138057 -53.88671875 15.328125 C-53.87640625 14.668125 -53.86609375 14.008125 -53.85546875 13.328125 C-53.8709375 12.338125 -53.8709375 12.338125 -53.88671875 11.328125 C-53.09522791 8.34839477 -51.77509988 7.21661759 -49.35546875 5.328125 C-46.140625 4.203125 -46.140625 4.203125 -42.41796875 3.328125 C-41.06440971 3.00287659 -39.71155181 2.67469785 -38.359375 2.34375 C-37.68406738 2.17939453 -37.00875977 2.01503906 -36.31298828 1.84570312 C-33.43740103 1.08538322 -30.66004953 0.06511502 -27.85546875 -0.921875 C-19.12226315 -3.63552212 -8.14979801 -5.04257655 0 0 Z " fill="#0079FF" transform="translate(77.35546875,370.671875)"/>
<path d="M0 0 C2.125 2.5625 2.125 2.5625 3 6 C1.04202561 13.45391023 -2.42873387 20.08370568 -5.95083618 26.89782715 C-13.71502357 41.96463971 -20.61170162 57.29505126 -27 73 C-27.43119141 74.05541992 -27.86238281 75.11083984 -28.30664062 76.19824219 C-44.87818654 117.09254097 -59.04969183 161.04410474 -59.5 205.5 C-59.51861084 206.6866626 -59.53722168 207.8733252 -59.55639648 209.09594727 C-59.48252156 219.18812229 -56.85829626 227.28335453 -51.8125 236 C-47.04688804 244.3006102 -46.92465509 253.4476865 -48.4609375 262.80859375 C-50.41842471 269.45253564 -54.19257238 274.14829242 -59.9375 277.9375 C-67.53847024 280.62317615 -77.19854762 280.30969358 -84.5 277 C-93.99594437 271.33077948 -97.7977342 263.33458509 -101 253 C-116.84341527 187.08883366 -72.10379637 103.04908147 -40.44628906 47.54394531 C-38.89068338 44.8077179 -37.36198427 42.05750167 -35.8359375 39.3046875 C-30.39949367 29.53096709 -24.8244964 19.83560237 -19.0625 10.25 C-18.28338257 8.91859985 -18.28338257 8.91859985 -17.48852539 7.56030273 C-13.07892779 0.33975533 -8.67534424 -4.09214351 0 0 Z M-75 170 C-74 172 -74 172 -74 172 Z M-76 173 C-81.21597382 192.71238239 -85.23147258 211.12009474 -85.375 231.5625 C-85.38901855 232.83561035 -85.40303711 234.1087207 -85.41748047 235.42041016 C-85.40664484 248.21979035 -85.40664484 248.21979035 -79.375 259.0625 C-78.199375 260.0215625 -78.199375 260.0215625 -77 261 C-76.67 261.33 -76.34 261.66 -76 262 C-71.95198727 262.41319366 -71.95198727 262.41319366 -68 262 C-65.2498496 259.2498496 -64.48180099 256.96638101 -64.3125 253.125 C-64.45176416 246.58828867 -67.4436737 242.1144928 -70.95703125 236.84765625 C-76.62653141 227.18331463 -76.4246751 216.10280642 -76.25 205.25 C-76.23808582 203.82813184 -76.22702273 202.4062563 -76.21679688 200.984375 C-76.12969507 191.63706107 -75.85766936 182.31183875 -75 173 C-75.33 173 -75.66 173 -76 173 Z " fill="#0079FF" transform="translate(470,177)"/>
<path d="M0 0 C2.125 2.5625 2.125 2.5625 3 6 C1.04540299 13.42746865 -2.37804511 19.98326834 -5.89370728 26.78329468 C-33.73386586 80.80731506 -59.03543709 144.07029642 -59.4375 205.5625 C-59.4528479 207.35506226 -59.4528479 207.35506226 -59.46850586 209.18383789 C-59.3753611 218.37520621 -58.10759315 226.47502615 -52.9375 234.25 C-47.15936618 243.01276783 -46.72288297 252.49827897 -48.46484375 262.73046875 C-50.41106829 269.42133538 -54.15581965 274.12405126 -59.9375 277.9375 C-67.53847024 280.62317615 -77.19854762 280.30969358 -84.5 277 C-93.99594437 271.33077948 -97.7977342 263.33458509 -101 253 C-116.84341527 187.08883366 -72.10379637 103.04908147 -40.44628906 47.54394531 C-38.89068338 44.8077179 -37.36198427 42.05750167 -35.8359375 39.3046875 C-30.39949367 29.53096709 -24.8244964 19.83560237 -19.0625 10.25 C-18.28338257 8.91859985 -18.28338257 8.91859985 -17.48852539 7.56030273 C-13.07892779 0.33975533 -8.67534424 -4.09214351 0 0 Z M-75 170 C-74 172 -74 172 -74 172 Z M-76 173 C-81.21597382 192.71238239 -85.23147258 211.12009474 -85.375 231.5625 C-85.38901855 232.83561035 -85.40303711 234.1087207 -85.41748047 235.42041016 C-85.40664484 248.21979035 -85.40664484 248.21979035 -79.375 259.0625 C-78.199375 260.0215625 -78.199375 260.0215625 -77 261 C-76.67 261.33 -76.34 261.66 -76 262 C-71.95198727 262.41319366 -71.95198727 262.41319366 -68 262 C-65.2498496 259.2498496 -64.48180099 256.96638101 -64.3125 253.125 C-64.45176416 246.58828867 -67.4436737 242.1144928 -70.95703125 236.84765625 C-76.62653141 227.18331463 -76.4246751 216.10280642 -76.25 205.25 C-76.23808582 203.82813184 -76.22702273 202.4062563 -76.21679688 200.984375 C-76.12969507 191.63706107 -75.85766936 182.31183875 -75 173 C-75.33 173 -75.66 173 -76 173 Z " fill="#0079FF" transform="translate(198,177)"/>
<path d="M0 0 C0.66 -0.0103125 1.32 -0.020625 2 -0.03125 C4.90266153 0.73976947 6.09054547 2.21755505 8 4.5 C8.51898193 6.87921143 8.51898193 6.87921143 8.54589844 9.54394531 C8.56561707 10.54468079 8.58533569 11.54541626 8.60565186 12.57647705 C8.60688049 13.64952087 8.60810913 14.7225647 8.609375 15.828125 C8.62591125 16.93226746 8.64244751 18.03640991 8.65948486 19.17401123 C8.70805626 22.69939689 8.7293569 26.22435089 8.75 29.75 C8.7781519 32.14064682 8.80807822 34.53127346 8.83984375 36.921875 C8.91381769 42.7811714 8.96540665 48.64034594 9 54.5 C9.91394531 53.99597656 10.82789063 53.49195313 11.76953125 52.97265625 C15 51.5 15 51.5 18.6875 51.9375 C22 53.5 22 53.5 24.0625 56.1875 C25.25989145 60.41828312 24.45529019 62.38196645 23 66.5 C21.24414062 69.57373047 21.24414062 69.57373047 19.15625 72.6171875 C18.60161072 73.43112473 18.60161072 73.43112473 18.0357666 74.26150513 C17.260249 75.3955063 16.48019931 76.52642049 15.69580078 77.65429688 C14.49328374 79.38466439 13.30625907 81.12490155 12.12109375 82.8671875 C6.2986222 91.3506889 6.2986222 91.3506889 4 92.5 C-3.12308127 93.20063094 -3.12308127 93.20063094 -6.2734375 90.68359375 C-10.32937326 86.2821899 -13.52221431 81.16543462 -16.8125 76.1875 C-17.85180664 74.67639648 -17.85180664 74.67639648 -18.91210938 73.13476562 C-22.74782474 67.33395471 -25.11066644 63.50758611 -24 56.5 C-22.5 54 -22.5 54 -20 52.5 C-15.7136488 51.82729297 -12.69330732 52.03779512 -9 54.5 C-8.99635437 53.88247864 -8.99270874 53.26495728 -8.98895264 52.62872314 C-8.9471597 46.20457247 -8.8778367 39.78113839 -8.79248047 33.35742188 C-8.76424535 30.9597083 -8.74304354 28.56190121 -8.72900391 26.1640625 C-8.70761028 22.71826203 -8.6609762 19.27358905 -8.609375 15.828125 C-8.60753204 14.21855927 -8.60753204 14.21855927 -8.60565186 12.57647705 C-8.58593323 11.57574158 -8.5662146 10.5750061 -8.54589844 9.54394531 C-8.53701599 8.66458313 -8.52813354 7.78522095 -8.51898193 6.87921143 C-7.54618675 2.41954673 -4.52906591 -0.07076665 0 0 Z " fill="#0079FF" transform="translate(256,359.5)"/>
</svg>
