<?xml version="1.0" encoding="UTF-8"?>
<svg version="1.1" xmlns="http://www.w3.org/2000/svg" width="512" height="512">
<path d="M0 0 C0.63599121 0.22026855 1.27198242 0.44053711 1.92724609 0.66748047 C17.05909297 6.03081461 30.52716845 13.94782168 43 24 C43.81855469 24.61875 44.63710938 25.2375 45.48046875 25.875 C49.07433492 28.72464964 50.75838261 30.20803188 52.125 34.6875 C51.94334278 39.50141643 51.94334278 39.50141643 50 42 C47.42123991 44.00570229 46.02706931 44.00119661 42.73046875 43.85546875 C38.38942172 42.85998257 36.1211405 40.98090377 33 38 C17.04922787 23.75840482 -3.12399994 15.08911341 -24 11 C-25.68996094 10.66355469 -25.68996094 10.66355469 -27.4140625 10.3203125 C-62.43994496 4.54855309 -100.07149464 11.48998807 -129.30859375 32.015625 C-130.19675781 32.67046875 -131.08492188 33.3253125 -132 34 C-132.83660156 34.61359375 -133.67320312 35.2271875 -134.53515625 35.859375 C-164.62699503 58.94091219 -180.46354473 92.54018194 -188 129 C-188.17934082 129.86189941 -188.35868164 130.72379883 -188.54345703 131.61181641 C-191.03105212 144.26717849 -191.30081241 156.95925964 -191.375 169.8125 C-191.3830365 170.58806244 -191.391073 171.36362488 -191.39935303 172.16268921 C-191.50949241 186.16652233 -190.37393053 200.14284709 -185.25 213.3125 C-184.80140625 214.50488281 -184.3528125 215.69726562 -183.890625 216.92578125 C-181.46890749 222.55819882 -178.15504352 227.75699608 -175 233 C-175.01571045 232.03102783 -175.0314209 231.06205566 -175.04760742 230.0637207 C-175.81155416 178.13551014 -171.8536697 123.36332495 -134 84 C-130.84023565 81.02982151 -127.56694218 78.46199468 -124 76 C-123.04996094 75.33613281 -122.09992188 74.67226562 -121.12109375 73.98828125 C-92.33567998 55.07421088 -53.81611224 51.97860383 -20.58105469 58.47265625 C6.84134919 64.41729619 30.06159175 78.27925587 45.53295898 102.1315918 C63.2541627 130.75478372 69.70238192 165.42442808 70.31640625 198.69921875 C70.33718735 199.6602803 70.35796844 200.62134186 70.37937927 201.61152649 C70.44398653 204.63678886 70.50333994 207.66212672 70.5625 210.6875 C70.60577003 212.7571688 70.64938679 214.82683038 70.69335938 216.89648438 C70.79957469 221.93091517 70.90108319 226.96542073 71 232 C78.57546276 219.17196216 84.04158598 207.0069167 86 192 C86.11085938 191.20207031 86.22171875 190.40414062 86.3359375 189.58203125 C90.9311344 149.52930149 82.76326693 102.35800076 59.46875 68.89453125 C57.66843886 65.34657765 57.62658019 62.93024345 58 59 C59.5 56.5625 59.5 56.5625 62 55 C66.94072425 54.12341989 66.94072425 54.12341989 70 55 C74.89658861 59.10759054 77.98885351 65.0285338 80.875 70.625 C81.30135742 71.44911377 81.72771484 72.27322754 82.16699219 73.12231445 C104.13719006 116.61626136 111.8142107 172.0919852 97 219 C91.81266961 234.43931782 82.16703543 247.81720271 69 257.375 C62.0393701 262.97874762 59.55106677 269.76552772 56.21484375 277.875 C51.45263361 289.31286562 44.09484849 299.68058701 36 309 C35.29230469 309.81726563 34.58460938 310.63453125 33.85546875 311.4765625 C26.82234527 319.43347628 19.5240404 327.6069697 11 334 C10.34 334 9.68 334 9 334 C9.33 347.86 9.66 361.72 10 376 C14.84945312 377.17755859 14.84945312 377.17755859 19.796875 378.37890625 C23.00156353 379.1643852 26.2054 379.95325494 29.40917969 380.74243164 C31.59972221 381.28014228 33.79110504 381.81444365 35.98339844 382.3449707 C101.3270428 398.17178832 101.3270428 398.17178832 118.375 424.9375 C123.18265277 432.90808222 124.54250511 441.52317704 124.5625 450.6875 C124.61760742 452.03424805 124.61760742 452.03424805 124.67382812 453.40820312 C124.71190072 459.18254641 123.72115825 462.37954173 119.78100586 466.63598633 C115.86995718 469.63132957 112.08837757 470.25043131 107.25337505 470.25726891 C105.52156177 470.26694224 105.52156177 470.26694224 103.75476235 470.276811 C101.85877469 470.2721652 101.85877469 470.2721652 99.92448425 470.26742554 C98.56468383 470.2711626 97.20488556 470.27576435 95.84509069 470.28115618 C92.10928834 470.29339474 88.37357548 470.29312472 84.63775766 470.29076743 C80.60832931 470.29035948 76.57892973 470.30139634 72.54951477 470.31088257 C64.65536187 470.32749827 56.76123884 470.33299237 48.86706992 470.33410732 C42.45039553 470.33505754 36.03373099 470.33916649 29.61705971 470.34550858 C11.42573638 470.3631226 -6.76556335 470.3723472 -24.95689527 470.37084763 C-25.93767501 470.37076772 -26.91845474 470.3706878 -27.92895508 470.37060547 C-29.4019204 470.37048283 -29.4019204 470.37048283 -30.9046426 470.37035771 C-46.81954901 470.36954478 -62.73436078 470.38868375 -78.64923982 470.4168822 C-94.9894228 470.44560583 -111.32955963 470.45942278 -127.66976851 470.45769465 C-136.84399676 470.45703056 -146.0181258 470.46253097 -155.19233131 470.48405075 C-163.00346028 470.5022557 -170.81444508 470.50661556 -178.62558607 470.4930319 C-182.61041219 470.48649873 -186.59496165 470.48639744 -190.57976151 470.5037384 C-194.22980088 470.5194591 -197.87934402 470.51661622 -201.52937122 470.49917014 C-203.47077299 470.49464588 -205.41219008 470.50976552 -207.35353214 470.52564943 C-214.37673137 470.4700761 -219.05408181 469.83987507 -225 466 C-229.97739339 460.52486727 -229.60433123 454.12919419 -229.31640625 447.07421875 C-228.36026918 432.38946119 -221.73965646 420.89340846 -211 411 C-201.62163258 403.45702391 -191.19623586 398.24992685 -180 394 C-179.3095459 393.73155273 -178.6190918 393.46310547 -177.90771484 393.18652344 C-164.7505961 388.16316843 -151.09471377 384.89997267 -137.4375 381.5625 C-136.50970734 381.33509125 -135.58191467 381.1076825 -134.62600708 380.87338257 C-131.95923422 380.22282289 -129.29069102 379.58026716 -126.62109375 378.94140625 C-125.81151215 378.74489471 -125.00193054 378.54838318 -124.16781616 378.34591675 C-120.65677071 377.51704179 -117.62792607 377 -114 377 C-113.79505928 371.09432984 -113.68501511 365.19676711 -113.65820312 359.28759766 C-113.63629778 357.28358074 -113.58962224 355.2796614 -113.51660156 353.27685547 C-112.75141857 340.79780805 -112.75141857 340.79780805 -118.0715332 330.06347656 C-120.96980821 327.40104342 -124.08343313 325.17764856 -127.396698 323.06323242 C-129.48850129 321.67604955 -131.19810284 320.05312134 -132.9375 318.25 C-133.44788818 317.7230957 -133.95827637 317.19619141 -134.48413086 316.65332031 C-136.25043322 314.72685879 -137.97434635 312.76733808 -139.69140625 310.796875 C-140.31345947 310.08370117 -140.9355127 309.37052734 -141.57641602 308.63574219 C-142.28109009 307.8260498 -142.28109009 307.8260498 -143 307 C-146.79229045 309.20726339 -150.58371514 311.41600988 -154.375 313.625 C-155.43589844 314.24246094 -156.49679688 314.85992187 -157.58984375 315.49609375 C-159.70483907 316.72875973 -161.81701241 317.96628097 -163.92626953 319.20874023 C-165.93894466 320.38165504 -167.96576271 321.53070692 -170.00732422 322.65258789 C-170.91756348 323.16297607 -171.82780273 323.67336426 -172.765625 324.19921875 C-173.57547852 324.64096436 -174.38533203 325.08270996 -175.21972656 325.5378418 C-177.19738754 326.85479525 -177.19738754 326.85479525 -177.46630859 329.12182617 C-177.40111919 330.5966057 -177.29000909 332.06964704 -177.1484375 333.5390625 C-176.78891503 339.49956664 -178.79982745 344.43835683 -182.67919922 348.95507812 C-186.05228339 352.53099809 -189.57432702 355.93148217 -193.15234375 359.30078125 C-197.93223101 363.84017197 -197.93223101 363.84017197 -202 369 C-201.93320094 371.56335053 -201.93320094 371.56335053 -201 374 C-200.64438277 378.75979983 -200.36020968 383.30643738 -202.0625 387.8125 C-216.77181747 404.41979392 -240.07858429 413.29293105 -261.62646484 415.27539062 C-277.43852819 416.80525685 -288.68715283 425.83543009 -300.79833984 435.37231445 C-306.51943643 439.87477579 -312.31972867 444.25306802 -318.1875 448.5625 C-318.96480469 449.13363525 -319.74210937 449.70477051 -320.54296875 450.29321289 C-322.01005674 451.36789942 -323.47974997 452.43904117 -324.95239258 453.50610352 C-326.28295301 454.47685578 -327.60381762 455.46109008 -328.9128418 456.46069336 C-334.57472773 460.71729382 -340.17390741 462.40632051 -347.2734375 461.80859375 C-356.86714966 459.76855151 -360.96778659 453.73405986 -366 446 C-368.40567878 441.96670346 -370.68177653 437.86869532 -372.9375 433.75 C-377.60693104 425.13245153 -377.60693104 425.13245153 -382.68359375 416.75390625 C-387.74167759 408.88804344 -389.59172465 402.39476581 -388 393 C-386.2702714 387.31089265 -381.92125706 383.12162926 -377 380 C-365.31307187 374.13442951 -365.31307187 374.13442951 -359.8125 375.4375 C-357 377 -357 377 -355.5 378.6875 C-354.75339075 382.14056778 -355.08715131 384.59203154 -356 388 C-359.94254116 392.3240774 -365.77304925 394.52354178 -371 397 C-371.2949546 401.65254753 -370.69124084 404.26043678 -368.2890625 408.23828125 C-367.41773682 409.70479126 -367.41773682 409.70479126 -366.52880859 411.20092773 C-365.90055176 412.22774658 -365.27229492 413.25456543 -364.625 414.3125 C-363.33827615 416.45556977 -362.05181965 418.59880008 -360.765625 420.7421875 C-360.12689453 421.79760742 -359.48816406 422.85302734 -358.83007812 423.94042969 C-357.17215402 426.71218861 -355.56510692 429.5040289 -353.984375 432.3203125 C-353.53884277 433.10752686 -353.09331055 433.89474121 -352.63427734 434.70581055 C-351.81332958 436.16069297 -351.00071784 437.62032043 -350.19775391 439.08520508 C-348.29280026 442.6671813 -348.29280026 442.6671813 -344.98852539 444.73974609 C-342.24230804 445.09916509 -341.29977064 444.28064282 -339.0625 442.6875 C-338.26457031 442.12160156 -337.46664062 441.55570312 -336.64453125 440.97265625 C-331.37976318 437.04546589 -326.18706793 433.02865957 -321 429 C-284.36278351 400.55219169 -284.36278351 400.55219169 -260.58618164 398.21337891 C-248.59435882 396.92894186 -239.13809899 392.27712962 -228.8125 386.25 C-227.76513672 385.64800781 -226.71777344 385.04601562 -225.63867188 384.42578125 C-223.08787563 382.95819985 -220.5419043 381.48291102 -218 380 C-219.14861185 377.03529672 -220.34717387 374.19766038 -221.890625 371.41796875 C-222.26340576 370.74523926 -222.63618652 370.07250977 -223.02026367 369.37939453 C-223.42607666 368.65606934 -223.83188965 367.93274414 -224.25 367.1875 C-224.67966064 366.41776855 -225.10932129 365.64803711 -225.55200195 364.85498047 C-230.99914113 355.1475678 -236.63846583 345.5507614 -242.27099609 335.95019531 C-245.18880312 330.97154802 -248.09417659 325.98564825 -251 321 C-267.3192999 328.83493345 -281.57742555 336.93623324 -291.75146484 352.2590332 C-300.34823593 365.13145708 -313.36428368 373.30320161 -328 378 C-331.37456315 378.42696455 -332.71058556 378.17922404 -336 377 C-338.76888937 374.14720489 -338.97559906 372.45548428 -339.1875 368.5 C-337.73716749 364.22533575 -336.46548858 363.41271132 -332.640625 361.30078125 C-330.65856847 360.32441317 -328.66738453 359.36653842 -326.671875 358.41796875 C-315.47761001 353.08284273 -308.27674909 347.22700234 -301.36499023 336.86010742 C-295.07085217 327.50520518 -287.64181041 321.67836519 -277.92285156 316.109375 C-275.76616765 314.86509216 -273.6289109 313.59074264 -271.4921875 312.3125 C-269.95343908 311.39530621 -268.41437973 310.47863383 -266.875 309.5625 C-265.77285156 308.90616577 -265.77285156 308.90616577 -264.6484375 308.23657227 C-263.9575 307.82979248 -263.2665625 307.4230127 -262.5546875 307.00390625 C-261.63405518 306.45972046 -261.63405518 306.45972046 -260.69482422 305.90454102 C-256.01248934 303.40554207 -251.16985901 303.41839086 -246 304 C-242.29617936 305.88685202 -240.41747486 307.3560981 -238.15625 310.84375 C-235.25136082 313.31954353 -235.25136082 313.31954353 -232.2277832 312.74731445 C-228.70638519 311.89646983 -225.26990963 310.89444837 -221.8125 309.8125 C-201.64373174 303.72775977 -201.64373174 303.72775977 -192.625 307.9375 C-191.08820264 308.63581672 -189.54686017 309.32426635 -188 310 C-187.13942993 310.37958862 -187.13942993 310.37958862 -186.26147461 310.7668457 C-182.7114728 311.13284503 -180.63536532 309.46767806 -177.58984375 307.703125 C-176.9811293 307.35368835 -176.37241486 307.00425171 -175.74525452 306.64422607 C-174.46019128 305.90338189 -173.17854659 305.1565806 -171.90014648 304.40429688 C-169.9480134 303.25618328 -167.98604636 302.12668701 -166.02148438 301 C-158.98710363 297.19068035 -158.98710363 297.19068035 -153 292 C-153.49628906 291.175 -153.99257812 290.35 -154.50390625 289.5 C-155.19237664 288.33467292 -155.87837264 287.16788204 -156.5625 286 C-156.92674072 285.37859131 -157.29098145 284.75718262 -157.66625977 284.11694336 C-159.98506958 280.05965643 -161.88780138 275.98739571 -163.609375 271.64575195 C-166.66430132 263.96070294 -169.82860949 259.35029204 -177 255 C-194.73276238 241.60995493 -203.88861176 218.84479664 -207.22631836 197.43383789 C-213.37827393 147.62220725 -203.29125582 90.57485675 -172.484375 50.08984375 C-167.05287716 43.33463182 -161.1263495 37.1263495 -155 31 C-154.50757813 30.46117187 -154.01515625 29.92234375 -153.5078125 29.3671875 C-135.18035288 9.59009831 -107.96563423 -1.13065001 -82 -6 C-80.80117188 -6.22558594 -79.60234375 -6.45117188 -78.3671875 -6.68359375 C-52.29574923 -10.69671323 -24.90917775 -8.6858025 0 0 Z M-129.58789062 103.33789062 C-144.67250789 121.0930902 -156 149.63227141 -156 173 C-150.6905873 172.43556477 -145.59358587 171.51496396 -140.38818359 170.33691406 C-129.44306475 167.87588142 -118.49933134 166.1186791 -107.375 164.75 C-106.37932007 164.62605362 -106.37932007 164.62605362 -105.36352539 164.49960327 C-87.89923271 162.34631201 -70.70339975 161.75924412 -53.125 161.75 C-51.97071503 161.74932526 -50.81643005 161.74865051 -49.62716675 161.74795532 C-17.50303311 161.77770633 13.96603319 164.73887376 45.23364258 172.43164062 C48.18233658 173.13416696 48.18233658 173.13416696 52 173 C47.97752468 144.10169049 39.86714235 117.26358201 19 96 C18.32582031 95.30132812 17.65164063 94.60265625 16.95703125 93.8828125 C-1.65564334 75.93362912 -29.98035829 71.44615371 -54.82006836 71.71459961 C-83.80766425 72.45359496 -109.83560321 81.49817522 -129.58789062 103.33789062 Z M-157 190 C-158.90449308 195.4754176 -160.63654047 201.27667332 -159 207 C-156.06995897 210.21391253 -152.60782201 212.2526141 -148.875 214.4375 C-147.44800781 215.3337207 -147.44800781 215.3337207 -145.9921875 216.24804688 C-136.81355398 221.95282257 -130.1467522 225.14641004 -119.2890625 225.203125 C-118.44330658 225.20882507 -117.59755066 225.21452515 -116.72616577 225.22039795 C-114.9392013 225.22983001 -113.15221957 225.2363748 -111.36523438 225.24023438 C-108.64161653 225.24994078 -105.91875342 225.28098097 -103.1953125 225.3125 C-101.45573363 225.31903066 -99.71614938 225.32428088 -97.9765625 225.328125 C-96.76222031 225.3466452 -96.76222031 225.3466452 -95.52334595 225.36553955 C-89.31927899 225.34127852 -85.13202716 224.0773598 -80.5625 219.625 C-78.08741347 216.485673 -76.42893261 212.99313555 -74.625 209.4375 C-70.96286447 202.47785715 -68.0570536 199.6075118 -60.6875 196.6875 C-51.98532326 195.06506027 -44.94655979 195.61321761 -37.23046875 200.0078125 C-32.06117491 203.71850198 -29.59665402 209.00242695 -26.92773438 214.61816406 C-24.88146523 218.81963734 -22.91903069 221.43322271 -19 224 C-15.17764204 225.27411932 -11.54823447 225.20161973 -7.5625 225.23828125 C-6.30953125 225.25038887 -6.30953125 225.25038887 -5.03125 225.26274109 C-3.25929838 225.27657415 -1.48732019 225.28729979 0.28466797 225.29516602 C2.0806469 225.30663109 3.87659325 225.3269951 5.67236328 225.35668945 C21.17378482 225.61289947 31.32008811 223.51857917 44.125 214.3125 C44.97320312 213.71888672 45.82140625 213.12527344 46.6953125 212.51367188 C50.51291468 209.9603473 50.51291468 209.9603473 54 207 C54.07319621 204.30345146 54.09242537 201.63308542 54.0625 198.9375 C54.05573242 197.79958008 54.05573242 197.79958008 54.04882812 196.63867188 C54.0370068 194.75908129 54.01907078 192.87953101 54 191 C39.59906515 185.93300441 24.63168951 183.08649845 9.5625 180.8125 C8.55396973 180.65789307 7.54543945 180.50328613 6.50634766 180.34399414 C-12.94184556 177.54898058 -32.36845801 176.62000843 -52 176.6875 C-53.10940948 176.68932281 -54.21881897 176.69114563 -55.36184692 176.69302368 C-89.97843214 176.78835367 -123.52169852 180.93617414 -157 190 Z M-59 213 C-60.63446612 215.4484233 -61.9178817 218.06560888 -63.25 220.6875 C-68.238304 229.94241339 -73.22264461 235.61688748 -83.36083984 239.17089844 C-90.63098116 240.82723816 -98.06347745 240.58715961 -105.48730469 240.52148438 C-108.36219146 240.5000953 -111.23456551 240.52132987 -114.109375 240.546875 C-127.70051955 240.57009617 -139.3618053 239.38064133 -150.75 231.25 C-154.17882032 228.43739041 -154.17882032 228.43739041 -158 227 C-158.16387486 232.64107681 -157.7149251 237.58894136 -156.375 243.0625 C-156.19751221 243.79637939 -156.02002441 244.53025879 -155.8371582 245.28637695 C-152.58395377 258.11010306 -147.01805428 276.00999933 -137 285 C-136.34 284.505 -135.68 284.01 -135 283.5 C-130.89875014 281.44937507 -128.56192201 281.48494429 -124 282 C-121.9375 283.4375 -121.9375 283.4375 -121 286 C-121.07354032 289.05192311 -121.46736191 291.99669125 -122 295 C-124.475 295.99 -124.475 295.99 -127 297 C-127 301.28593885 -124.48690911 303.16767987 -121.6875 306.125 C-120.87043579 306.99560059 -120.87043579 306.99560059 -120.03686523 307.88378906 C-103.13675131 325.5795769 -77.83845554 343.74534977 -52.375 344.5625 C-31.73863571 343.65965906 -12.353359 332.24307964 3 319 C3.88816406 318.23816406 4.77632812 317.47632813 5.69140625 316.69140625 C8.17317164 314.50517934 10.59370864 312.268789 13 310 C13.73605469 309.32839844 14.47210938 308.65679687 15.23046875 307.96484375 C35.27784141 288.98193336 51.60418549 258.71628554 54 231 C53.60469941 228.77722351 53.60469941 228.77722351 53 227 C51.76636719 227.79664063 51.76636719 227.79664063 50.5078125 228.609375 C41.68973759 234.22063608 32.44863247 240.03368707 21.68139648 240.17700195 C20.83629013 240.18983719 19.99118378 240.20267242 19.12046814 240.21589661 C18.21317459 240.22328354 17.30588104 240.23067047 16.37109375 240.23828125 C15.42621597 240.246353 14.4813382 240.25442474 13.50782776 240.26274109 C11.50645775 240.27656269 9.50506436 240.28729344 7.50366211 240.29516602 C5.47201555 240.30665156 3.44039834 240.3270486 1.40893555 240.35668945 C-25.11891502 240.74353143 -25.11891502 240.74353143 -35.09375 231.40234375 C-38.04337357 227.68509274 -40.12170217 223.53472594 -42.1237793 219.24291992 C-44.11550896 215.09387989 -45.7517552 212.87059811 -50 211 C-53.65190388 210.55464587 -55.97707089 210.91021167 -59 213 Z M-216.875 325 C-218.33679688 325.42925781 -218.33679688 325.42925781 -219.828125 325.8671875 C-222.22096903 326.57096515 -224.61137021 327.2820745 -227 328 C-225.21697508 333.00462676 -222.59335004 337.50883694 -220 342.125 C-219.54882812 342.93582031 -219.09765625 343.74664062 -218.6328125 344.58203125 C-216.83631985 347.79764679 -215.04465346 350.93301981 -213 354 C-208.22386839 351.84972122 -205.00508399 348.44886959 -201.3125 344.8125 C-200.27899414 343.84086914 -200.27899414 343.84086914 -199.22460938 342.84960938 C-195.94795707 339.62450715 -194.19048537 337.70494017 -192.96875 333.18359375 C-193.01424297 328.54899695 -194.61162064 326.38837936 -197.8125 323.1875 C-203.77560896 319.95038371 -210.84967374 323.18750348 -216.875 325 Z M-98 346 C-98.0093457 347.05912598 -98.01869141 348.11825195 -98.02832031 349.20947266 C-98.06833849 353.15715851 -98.1341291 357.10407471 -98.20751953 361.05126953 C-98.23566087 362.75624671 -98.25690935 364.46135269 -98.27099609 366.16650391 C-98.29252137 368.62469089 -98.339217 371.08134048 -98.390625 373.5390625 C-98.39185364 374.29555084 -98.39308228 375.05203918 -98.39434814 375.83145142 C-98.53457784 380.95384613 -99.4430977 384.06850128 -103 388 C-108.2088822 391.55156089 -114.0404879 392.98560586 -120.125 394.296875 C-121.89020484 394.6977796 -123.65533896 395.09899568 -125.42041016 395.50048828 C-126.33236145 395.7041803 -127.24431274 395.90787231 -128.18389893 396.11773682 C-172.62790752 404.92371447 -172.62790752 404.92371447 -207.5 431.5 C-212.19007684 439.30775797 -213 444.70026731 -213 454 C-106.74 454 -0.48 454 109 454 C107.11145416 439.83590617 104.95571906 430.74062832 94 422 C76.23806574 409.28032668 54.97915812 403.66033741 34.04296875 398.54296875 C33.1526445 398.32442734 32.26232025 398.10588593 31.34501648 397.88072205 C26.81278467 396.76981753 22.27778718 395.67383477 17.73608398 394.60229492 C16.0349071 394.19094956 14.33381312 393.77926115 12.6328125 393.3671875 C11.85225998 393.18814377 11.07170746 393.00910004 10.26750183 392.82463074 C3.91329911 391.26508878 -1.45622161 388.78195421 -5 383 C-6.20161511 379.39515466 -6.23017136 376.02710143 -6.31640625 372.26953125 C-6.33718735 371.51911057 -6.35796844 370.76868988 -6.37937927 369.99552917 C-6.44469926 367.60127816 -6.50367792 365.20691861 -6.5625 362.8125 C-6.60570193 361.18813987 -6.64931676 359.56379067 -6.69335938 357.93945312 C-6.80036263 353.95974629 -6.90167937 349.97993042 -7 346 C-10.50908702 347.38427743 -13.937963 348.88451369 -17.36450195 350.46264648 C-37.18570243 359.45740376 -56.1506128 362.46519194 -77 355 C-82.34449786 352.85814688 -87.43218951 350.28943166 -92.5625 347.6875 C-95.66099447 345.85310894 -95.66099447 345.85310894 -98 346 Z " fill="#000000" transform="translate(388,25)"/>
<path d="M0 0 C6.60114923 3.36284961 8.75439319 8.39591946 11.69970703 14.82470703 C16.69105173 25.50070729 21.24154245 29.5167625 32.1875 34 C41.13732496 37.69874993 41.13732496 37.69874993 44 43 C45.37605655 47.34123648 45.18167386 50.35879814 43.9375 54.75 C40.50119537 60.5141239 36.14764061 61.96572074 30.125 64.3125 C19.04545607 68.86498587 14.75620958 75.23068462 10 86 C6.00882525 95.01976676 6.00882525 95.01976676 1 97 C-4.6395378 98.46210239 -7.93565728 97.86660909 -13 95 C-16.08880106 91.61814381 -17.79489475 88.4627493 -19.375 84.1875 C-22.97053568 75.29155458 -27.27013762 69.24891973 -36 65 C-39.07223869 63.74820095 -42.14683686 62.53741668 -45.265625 61.40625 C-49.05881729 59.45546539 -51.10969208 56.78061584 -53 53 C-53.36650486 47.50242703 -53.44240237 43.55612078 -50 39 C-46.02554171 36.50005825 -41.71335314 34.72914126 -37.40234375 32.89453125 C-27.85772 28.57215914 -22.68487109 22.4423469 -18.8125 12.75 C-18.38582031 11.58984375 -17.95914063 10.4296875 -17.51953125 9.234375 C-15.83196962 5.6423415 -14.00826066 3.56380535 -11 1 C-7.27148658 -0.24283781 -3.87253239 -0.5280726 0 0 Z M-5 22 C-5.32871094 22.68964844 -5.65742187 23.37929687 -5.99609375 24.08984375 C-11.86970284 35.69380318 -19.30468035 42.42559531 -31 48 C-28.56073579 50.70758328 -25.88021336 52.34696952 -22.75 54.1875 C-13.84204415 59.80491807 -9.23895729 66.46722969 -5 76 C-2.43689274 73.67812637 -0.91771545 71.2668785 0.75 68.25 C6.37067295 58.80452766 13.39797191 54.18730253 23 49 C20.02788838 46.67521012 16.94083884 44.78006687 13.6875 42.875 C5.91674235 37.96007339 1.53823786 31.23548353 -3.0546875 23.43359375 C-3.36664063 22.96050781 -3.67859375 22.48742187 -4 22 C-4.33 22 -4.66 22 -5 22 Z " fill="#000000" transform="translate(89,220)"/>
<path d="M0 0 C5.38493996 3.50647254 6.78179744 9.11494895 8.7890625 14.94140625 C9.90639398 17.7635693 11.14758598 19.6389752 13 22 C13 22.66 13 23.32 13 24 C16.22127045 25.67228633 19.51577495 27.06560274 22.875 28.4375 C34.36478122 33.23773746 34.36478122 33.23773746 36.875 36.25 C38.31158806 39.76165971 38.40359922 42.23307391 38 46 C35.74025775 51.23308731 32.22179873 53.07300457 27.09765625 55.2109375 C26.09605469 55.59507812 25.09445313 55.97921875 24.0625 56.375 C14.1465201 60.50665829 11.06483032 65.14795362 7 75 C2.86180286 84.3300312 2.86180286 84.3300312 -1 86 C-5.93786315 86.83084504 -8.83222246 86.77851836 -13.09375 83.9375 C-16.43726311 80.94990583 -17.72597918 77.680506 -19.125 73.5 C-21.10297208 67.79213771 -22.97576974 62.92735918 -28.26171875 59.55859375 C-29.06222656 59.18863281 -29.86273438 58.81867188 -30.6875 58.4375 C-31.99654297 57.81681641 -31.99654297 57.81681641 -33.33203125 57.18359375 C-35.04802322 56.42232645 -36.7741708 55.68334849 -38.51171875 54.97265625 C-43.15295335 53.06246217 -46.56809494 51.65234011 -49 47 C-49.61131521 42.1858927 -49.64879529 40.26378239 -47.42578125 35.93359375 C-44.56036803 32.46833558 -41.82624329 31.34711836 -37.6875 30 C-30.12670526 27.23989708 -24.66671111 24.52044368 -20.8125 17.25 C-19.78659155 14.98427028 -18.88704222 12.69952337 -18.01171875 10.37109375 C-17.67785156 9.48550781 -17.34398438 8.59992188 -17 7.6875 C-16.71125 6.86636719 -16.4225 6.04523438 -16.125 5.19921875 C-12.83023124 -1.24159658 -6.42944493 -1.7431501 0 0 Z M-6 24 C-6.3403125 24.56847656 -6.680625 25.13695313 -7.03125 25.72265625 C-11.61570148 33.02607763 -17.13295262 37.90312483 -24 43 C-23.28714844 43.46148437 -22.57429688 43.92296875 -21.83984375 44.3984375 C-14.92597706 49.1069389 -10.30402884 53.8315151 -6 61 C-5.484375 60.34 -4.96875 59.68 -4.4375 59 C-3.633125 58.01 -2.82875 57.02 -2 56 C-1.23623047 55.0409375 -1.23623047 55.0409375 -0.45703125 54.0625 C3.51818983 49.25948689 7.51539531 45.9631111 13 43 C10.58862917 41.16735817 8.19407795 39.4925676 5.625 37.875 C1.83114328 35.20706205 -0.33520243 31.90562892 -2.73828125 27.98828125 C-3.97506066 25.87949117 -3.97506066 25.87949117 -6 24 Z " fill="#000000" transform="translate(126,102)"/>
<path d="M0 0 C1.91903444 0.72159878 3.83570267 1.44952038 5.75 2.18359375 C16.82466172 6.33235846 29.18879128 4.54286808 39.8671875 0.06640625 C43.6869589 -1.38437231 46.21729835 -1.31352935 50.3046875 -0.859375 C53.33259791 1.71434884 54.16631459 3.29309094 54.8046875 7.203125 C54.16020284 10.98947239 53.40435365 11.8725766 50.3046875 14.140625 C35.88329635 22.47650604 18.39117861 22.83251039 2.58203125 19.0625 C-10.09435963 15.49679291 -10.09435963 15.49679291 -13.6953125 11.140625 C-14.80809509 7.48433934 -15.01479613 5.82523279 -13.3828125 2.328125 C-9.88276847 -2.20896911 -5.03526112 -1.60544557 0 0 Z " fill="#000000" transform="translate(315.6953125,298.859375)"/>
</svg>
