<?xml version="1.0" encoding="UTF-8"?>
<svg version="1.1" xmlns="http://www.w3.org/2000/svg" width="512" height="512">
<path d="M0 0 C0.95290515 -0.00445784 1.9058103 -0.00891569 2.88759136 -0.01350862 C3.92638848 -0.01332426 4.9651856 -0.01313989 6.03546143 -0.01294994 C7.70032577 -0.01846498 7.70032577 -0.01846498 9.39882374 -0.02409142 C13.12568941 -0.03512264 16.85252719 -0.03897119 20.57940674 -0.04278088 C23.24867417 -0.049046 25.91793863 -0.05568022 28.58720398 -0.0626936 C36.60304614 -0.08243305 44.61888951 -0.09252147 52.63474989 -0.10142139 C56.41363577 -0.10580882 60.19252025 -0.11117448 63.97140503 -0.11641026 C76.5405905 -0.13342077 89.10977512 -0.14791333 101.67897034 -0.155159 C104.93891399 -0.15706876 108.19885764 -0.15898911 111.45880127 -0.16094494 C112.26900156 -0.16142868 113.07920185 -0.16191242 113.91395366 -0.16241082 C127.02871263 -0.17070511 140.14338022 -0.19603265 153.25809932 -0.22852562 C166.73598011 -0.26164488 180.21381454 -0.27961219 193.69173622 -0.28280324 C201.25367527 -0.28496394 208.8154811 -0.29364784 216.37738037 -0.31926441 C222.81960885 -0.34103813 229.26167172 -0.34898927 235.70393282 -0.33929763 C238.98665768 -0.33477194 242.26897225 -0.33874751 245.55166435 -0.35605907 C265.87520974 -0.45720604 281.0658435 0.93788409 296.84503174 15.07172108 C300.56078898 18.98796882 303.13086758 23.18500483 305.59503174 27.94672108 C305.92527344 28.57376942 306.25551514 29.20081776 306.59576416 29.84686756 C311.02908741 39.02794238 311.45759935 49.28100749 311.41822815 59.31570911 C311.4220537 60.37372435 311.42587924 61.43173959 311.42982072 62.5218159 C311.44005587 66.03117878 311.43617672 69.54037513 311.43218994 73.04974842 C311.43654165 75.5804964 311.44172632 78.11124307 311.44767761 80.6419878 C311.45964507 86.78124227 311.46222508 92.92043639 311.45987735 99.05970024 C311.45808807 104.05405457 311.45985683 109.04839569 311.46410179 114.04274845 C311.46469698 114.75589901 311.46529217 115.46904957 311.46590539 116.20381076 C311.46711725 117.65297511 311.46833139 119.10213947 311.46954777 120.55130382 C311.48040248 134.11510282 311.47827057 147.6788769 311.47216292 161.24267729 C311.46699496 173.62558585 311.47824971 186.00841571 311.49726114 198.39130871 C311.51667666 211.1360435 311.52488909 223.88074112 311.52113789 236.62549078 C311.51923156 243.76870003 311.52165783 250.9118423 311.53585243 258.05503941 C311.54907038 264.77417098 311.54645603 271.49312019 311.53344154 278.21226025 C311.53108332 280.67037796 311.53378324 283.12850685 311.54206467 285.58661175 C311.60689018 306.33286559 310.83318946 325.02335883 295.63800049 340.88031483 C283.27293188 352.11597559 269.51263557 355.29291518 253.3293457 355.26793385 C252.24898458 355.2701994 251.16862345 355.27246496 250.05552411 355.27479917 C246.44075272 355.28112178 242.82601898 355.28031091 239.21124268 355.27948475 C236.61725313 355.28247733 234.02326403 355.28588009 231.42927551 355.28966236 C225.11723466 355.29795533 218.80520314 355.3007166 212.4931573 355.30127474 C207.35993117 355.30175057 202.22670812 355.30380868 197.09348297 355.30697536 C182.52611572 355.31577849 167.95875582 355.32039531 153.39138588 355.31964489 C152.21432681 355.31958496 152.21432681 355.31958496 151.01348877 355.31952381 C150.22781978 355.31948293 149.44215079 355.31944205 148.63267365 355.31939993 C135.90471332 355.31899363 123.17678259 355.32856009 110.44883081 355.34266218 C97.36640042 355.35704213 84.28398445 355.36393146 71.20154595 355.3630684 C63.86219294 355.36273698 56.52287096 355.36546013 49.18352509 355.37624645 C42.27901069 355.38632902 35.37456275 355.38599956 28.47004509 355.37872982 C25.93971854 355.37768524 23.4093879 355.38003936 20.87906837 355.38609028 C17.41718649 355.39383095 13.95552954 355.38915149 10.49365234 355.38145924 C9.49936714 355.3866028 8.50508193 355.39174636 7.48066688 355.39704579 C-8.61999968 355.31833324 -21.99820559 350.79711448 -33.72528076 339.45453358 C-44.37916456 327.77850595 -48.16197632 314.5823276 -48.10316467 299.07225513 C-48.10890299 297.45020852 -48.10890299 297.45020852 -48.11475724 295.79539329 C-48.12503675 292.18912885 -48.12110465 288.58302514 -48.11712646 284.97675037 C-48.12147574 282.38408734 -48.12665961 279.7914256 -48.13261414 277.19876575 C-48.14533353 270.89734913 -48.14715825 264.59597518 -48.14481387 258.29454788 C-48.14302731 253.16947922 -48.14478759 248.04442346 -48.14903831 242.91935635 C-48.1496335 242.1885697 -48.15022869 241.45778306 -48.15084192 240.70485136 C-48.15205373 239.22000894 -48.15326787 237.73516652 -48.15448429 236.25032411 C-48.16534939 222.33942106 -48.16320234 208.42854229 -48.15709945 194.51763789 C-48.1519323 181.80986194 -48.16318222 169.1021627 -48.18219767 156.39440193 C-48.20160102 143.32658841 -48.20982762 130.25881113 -48.20607442 117.19098312 C-48.20416602 109.86223438 -48.20661452 102.5335509 -48.22078896 95.20481396 C-48.2339881 88.3109091 -48.23140887 81.41715985 -48.21837807 74.52325535 C-48.21601595 71.99818526 -48.21873383 69.47310434 -48.22700119 66.94804668 C-48.23750102 63.49090074 -48.22934151 60.03426598 -48.21669006 56.57713795 C-48.22406435 55.58712982 -48.23143863 54.5971217 -48.23903638 53.57711333 C-48.13602888 40.12050885 -44.052352 25.79442194 -34.65106201 15.78265858 C-25.01900216 7.00354571 -13.34571001 0.02909654 0 0 Z M-25.09246826 29.75922108 C-33.63070626 42.58608174 -32.40643485 56.57095339 -32.34417725 71.38861561 C-32.34796401 73.95541142 -32.35346699 76.52220519 -32.36054993 79.08899403 C-32.3744231 85.31519321 -32.3669708 91.54118843 -32.35187434 97.76737775 C-32.33494454 105.02821587 -32.33823318 112.28900416 -32.34196842 119.54985593 C-32.34783594 132.50949654 -32.33371799 145.46903973 -32.309021 158.42865467 C-32.28509355 170.98598346 -32.27802202 183.54318218 -32.28851318 196.10052967 C-32.299937 209.79862199 -32.30183516 223.49665428 -32.28741509 237.1947459 C-32.28588935 238.65683897 -32.284369 240.11893204 -32.28285408 241.58102512 C-32.28209627 242.30027504 -32.28133845 243.01952496 -32.28055767 243.76057032 C-32.27582693 248.81451329 -32.2776576 253.86842933 -32.28191948 258.92237186 C-32.28737656 265.73015339 -32.27654818 272.53772905 -32.25496483 279.34548664 C-32.24941015 281.84075407 -32.24891951 284.3360388 -32.25391769 286.83130741 C-32.25989362 290.24303355 -32.24732052 293.65421505 -32.23014832 297.06589222 C-32.23615836 298.04800682 -32.24216841 299.03012142 -32.24836057 300.04199708 C-32.14398356 311.48347636 -28.78887296 320.66350973 -21.02606201 329.11078358 C-13.92307785 335.85503116 -4.93424915 339.24630407 4.84382629 339.26844215 C6.22093308 339.27512892 6.22093308 339.27512892 7.62586021 339.28195077 C9.12569167 339.28167423 9.12569167 339.28167423 10.65582275 339.2813921 C12.25943381 339.28690713 12.25943381 339.28690713 13.89544106 339.29253358 C17.48411155 339.30356213 21.07275309 339.30741289 24.66143799 339.31122303 C27.23218375 339.31748836 29.80292862 339.32413522 32.37367249 339.33113575 C40.09288592 339.35087296 47.81210062 339.36096338 55.53133297 339.36986354 C59.17075116 339.37425138 62.81016791 339.37961694 66.44958496 339.38485241 C78.55553892 339.40186277 90.66149199 339.41635517 102.76745605 339.42360115 C105.90708416 339.4255109 109.04671226 339.42743125 112.18634033 339.42938709 C112.96663447 339.42987083 113.74692862 339.43035457 114.55086803 339.43085297 C127.18063921 339.43914671 139.81031547 339.46447335 152.44004524 339.49696777 C165.42072064 339.53009149 178.4013479 339.54805475 191.38206577 339.55124539 C198.66455028 339.5534057 205.94689642 339.56208365 213.2293396 339.58770657 C220.08463897 339.61177153 226.93968621 339.61520599 233.79501915 339.60494518 C236.30516067 339.60445056 238.81531457 339.610749 241.32541847 339.62450123 C263.76188861 340.1052291 263.76188861 340.1052291 283.22393799 330.05218983 C292.39032683 320.95987282 295.24241455 311.3932096 295.30526143 298.66767687 C295.30507707 297.69015681 295.30489271 296.71263676 295.30470276 295.70549488 C295.31021779 294.13122883 295.31021779 294.13122883 295.31584424 292.52515942 C295.3268565 289.00869257 295.33072076 285.4922553 295.33453369 281.97577381 C295.3408002 279.45414099 295.34744716 276.93250908 295.35444641 274.41087818 C295.37365207 266.84484368 295.38427122 259.27881438 295.3931742 251.71276173 C295.39756391 248.14457383 295.40292891 244.57638739 295.40816307 241.00820065 C295.4251705 229.13811107 295.43966325 217.2680224 295.44691181 205.39792252 C295.44882151 202.32068283 295.45074188 199.24344315 295.45269775 196.1662035 C295.45318149 195.40142793 295.45366523 194.63665237 295.45416363 193.84870178 C295.4624588 181.46795456 295.48778918 169.08730411 295.52027843 156.70659911 C295.55340414 143.97901479 295.57136551 131.25147957 295.57455605 118.52385193 C295.57671598 111.38446296 295.58538856 104.24521514 295.61101723 97.10586834 C295.63508537 90.38597405 295.63851548 83.66637689 295.62825584 76.94643307 C295.62776132 74.4862798 295.63405703 72.02611389 295.64781189 69.56599903 C296.10093106 46.61433021 296.10093106 46.61433021 285.15753174 27.13422108 C279.43292059 21.35573124 272.28963054 16.4917726 263.94855922 16.00541991 C262.73404452 16.00273705 262.73404452 16.00273705 261.49499416 16 C260.55678025 15.99554216 259.61856633 15.99108431 258.65192169 15.98649138 C257.11065608 15.98676793 257.11065608 15.98676793 255.53825378 15.98705006 C253.89705569 15.98153502 253.89705569 15.98153502 252.22270209 15.97590858 C248.54334046 15.96486419 244.86400707 15.96102659 241.18463135 15.95721912 C238.55167552 15.95095501 235.91872057 15.94430826 233.2857666 15.9373064 C225.37482064 15.91755539 217.46387343 15.90747702 209.55290899 15.89857861 C205.82506737 15.89419304 202.09722717 15.88882689 198.36938667 15.88358974 C185.97266275 15.86657801 173.5759397 15.85208499 161.17920589 15.844841 C157.96307817 15.84293119 154.74695045 15.84101085 151.53082275 15.83905506 C150.7314948 15.83857132 149.93216685 15.83808758 149.10861684 15.83758918 C136.16703881 15.82929318 123.22555334 15.8039633 110.28401571 15.77147438 C96.98923821 15.73837156 83.6945077 15.72038929 70.39968878 15.71719676 C62.93840232 15.71503453 55.47725079 15.70632813 48.01600456 15.68073559 C41.66006489 15.65898438 35.30429293 15.65099975 28.94832026 15.66070237 C25.70837863 15.66523455 22.46885345 15.66122394 19.22894478 15.64394093 C15.70757215 15.62621122 12.18706901 15.63333463 8.66569519 15.64647388 C7.14785216 15.63002002 7.14785216 15.63002002 5.59934562 15.61323375 C-6.69113703 15.72349702 -17.19057052 20.2611794 -25.09246826 29.75922108 Z " fill="#0079FF" transform="translate(54.84246826171875,76.86577892303467)"/>
<path d="M0 0 C1.02152226 -0.00623996 2.04304451 -0.01247993 3.09552199 -0.01890898 C6.49934992 -0.03479234 9.90245713 -0.02225247 13.30628967 -0.00964355 C15.75441911 -0.01506675 18.20254528 -0.02219051 20.65066528 -0.03088379 C26.59853278 -0.04720769 32.54621488 -0.04484877 38.49407714 -0.03323323 C43.33075008 -0.02418076 48.16736649 -0.02298272 53.00404549 -0.02732849 C53.69377916 -0.02794142 54.38351283 -0.02855436 55.09414752 -0.02918586 C56.49556642 -0.03046483 57.8969853 -0.03176169 59.29840416 -0.03307623 C72.42479341 -0.04446924 85.55107072 -0.0313889 98.6774416 -0.00987476 C109.92585066 0.00799111 121.17409454 0.0048939 132.42250061 -0.0135498 C145.50200907 -0.03498605 158.58141952 -0.04336655 171.66094309 -0.03110075 C173.05736417 -0.02982663 174.45378527 -0.02856915 175.85020638 -0.02732849 C176.88065471 -0.02640284 176.88065471 -0.02640284 177.93192018 -0.02545848 C182.75891747 -0.02201353 187.58585228 -0.02781551 192.41283989 -0.0372467 C198.91772724 -0.0496775 205.42237676 -0.04074796 211.92723656 -0.01766968 C214.3112359 -0.01239147 216.69526154 -0.01388107 219.07925034 -0.02272034 C222.34021216 -0.03369419 225.60018473 -0.01988881 228.86108398 0 C229.79855357 -0.00892289 230.73602315 -0.01784577 231.7019009 -0.02703905 C240.28681753 0.07412256 248.50635476 2.58460389 254.89247131 8.54699707 C262.11918869 17.39531932 263.6054752 26.88786422 263.63929749 37.94274902 C263.6443354 38.98601349 263.6443354 38.98601349 263.6494751 40.050354 C263.65888631 42.32399335 263.66092321 44.59755828 263.66200256 46.87121582 C263.66522197 48.47010833 263.66858654 50.06900054 263.67208862 51.66789246 C263.67805534 55.01065757 263.67993106 58.35339693 263.67933655 61.69616699 C263.67923507 65.95249111 263.69288389 70.2086479 263.71010876 74.46493244 C263.72129721 77.76546468 263.72325367 81.06595733 263.72272682 84.36650658 C263.72389677 85.9343848 263.72826234 87.5022644 263.73605919 89.07012367 C263.85111035 114.5937202 263.85111035 114.5937202 254.48231506 124.67199707 C246.58749925 132.24991801 238.8431759 133.96518391 228.10868835 133.89561462 C227.10012232 133.90100016 226.09155629 133.9063857 225.05242765 133.91193444 C221.69250478 133.92617542 218.33297802 133.91911967 214.97303772 133.9119873 C212.5560881 133.91769289 210.13914118 133.92465788 207.72219849 133.93278503 C201.8502304 133.94885125 195.97836121 133.95082115 190.10638286 133.94557213 C185.33074646 133.9415217 180.5551416 133.94298433 175.77950668 133.94832039 C175.09838782 133.94906881 174.41726895 133.94981723 173.71551012 133.95058833 C172.33156797 133.9521199 170.94762582 133.95365825 169.56368367 133.9552033 C156.60086125 133.96891436 143.63809926 133.9635006 130.67527823 133.95201809 C118.83331175 133.94208839 106.99150159 133.95502425 95.14955921 133.97895228 C82.97106129 134.00337371 70.79263607 134.01294361 58.61411417 134.00629956 C51.78448654 134.00281392 44.95497905 134.00499579 38.12537003 134.02255058 C31.70174826 134.03885792 25.27835098 134.0340436 18.85473442 134.01524544 C16.50178903 134.01156456 14.14882147 134.01465332 11.79589653 134.02513123 C8.57470563 134.03837674 5.35449605 134.02676121 2.13334656 134.00914001 C0.74902071 134.02354752 0.74902071 134.02354752 -0.66327131 134.0382461 C-9.63856138 133.9377772 -18.39391608 131.51775697 -25.00987244 125.20324707 C-31.7684356 117.54471858 -33.81570417 109.41793854 -33.78062439 99.32287598 C-33.78573532 98.54773148 -33.79084625 97.77258698 -33.79611206 96.97395325 C-33.80990382 94.43572054 -33.80905914 91.89776257 -33.80674744 89.35949707 C-33.81064022 87.57884624 -33.81497608 85.79819634 -33.81973267 84.01754761 C-33.8271726 80.29393498 -33.8269199 76.5704172 -33.82164001 72.84680176 C-33.81584975 68.09705508 -33.83277653 63.34769892 -33.85598469 58.59801674 C-33.87078343 54.92263555 -33.87158538 51.24734708 -33.86847496 47.57194138 C-33.86898513 45.82181399 -33.87416522 44.07168099 -33.88428688 42.32158279 C-33.94993054 29.38477149 -33.58013436 18.4871988 -24.50596619 8.50793457 C-17.50796412 1.69906769 -9.46167587 -0.08984297 0 0 Z M-15.31846619 22.50793457 C-17.82982952 26.73759914 -17.66433382 31.10049835 -17.68296814 35.90344238 C-17.68953934 36.64220108 -17.69611053 37.38095978 -17.70288086 38.1421051 C-17.72255612 40.58175773 -17.73426391 43.02134895 -17.74424744 45.46105957 C-17.74832296 46.29691338 -17.75239849 47.13276718 -17.75659752 47.99394989 C-17.77743427 52.41869355 -17.79174598 56.84340642 -17.8011322 61.26818848 C-17.81218798 65.82550378 -17.84658494 70.38232967 -17.8863039 74.9394722 C-17.91251669 78.45520909 -17.92082818 81.97083018 -17.92441368 85.48665619 C-17.92926807 87.16589409 -17.94084922 88.84512722 -17.95945168 90.5242691 C-18.39300152 102.71531416 -18.39300152 102.71531416 -13.50596619 113.50793457 C-8.17226665 117.21688212 -4.41345516 118.08334102 1.99964905 117.96203613 C2.81997116 117.96262024 3.64029327 117.96320435 4.48547363 117.96380615 C7.1749677 117.9610375 9.86332908 117.93000443 12.55262756 117.89855957 C14.42591751 117.89109282 16.2992153 117.88540194 18.17251587 117.88140869 C23.08653082 117.86618654 28.00006769 117.82693436 32.91389465 117.78259277 C37.93468256 117.74156613 42.95554823 117.72338192 47.97645569 117.70324707 C57.81585765 117.66043666 67.65490587 117.59222695 77.49403381 117.50793457 C75.21773653 114.03456062 73.13192104 110.93132387 70.05653381 108.13293457 C64.27582665 102.53870183 60.40048199 96.49065867 60.18153381 88.32043457 C60.25559448 82.0911093 61.67156471 77.61582189 65.88465881 72.97668457 C70.9372744 68.40273782 76.35986099 66.96479338 83.02113342 67.2166748 C91.39827357 68.20333965 96.77045169 73.16145749 102.11903381 79.25793457 C102.73520569 79.93598145 103.35137756 80.61402832 103.98622131 81.31262207 C107.03968434 84.68682702 110.02620066 88.11824859 113.01356506 91.55090332 C117.00636979 96.1254783 121.16453908 100.53634114 125.33192444 104.95129395 C125.91264709 105.56939941 126.49336975 106.18750488 127.09169006 106.82434082 C127.60223938 107.36518311 128.1127887 107.90602539 128.6388092 108.46325684 C130.49403381 110.50793457 130.49403381 110.50793457 131.64438534 112.20869064 C133.65621599 114.98970607 135.26051843 117.13142781 138.62069798 118.15705776 C141.1900079 118.39703482 143.6795708 118.41997722 146.25965881 118.36608887 C147.709552 118.3772599 147.709552 118.3772599 149.18873596 118.38865662 C152.37483924 118.40413663 155.55814208 118.36921792 158.74403381 118.33215332 C160.96310747 118.32924906 163.18218574 118.32886358 165.40126038 118.33088684 C170.04845918 118.32767148 174.69471159 118.30071464 179.34169006 118.2557373 C185.29377013 118.19906924 191.24466985 118.19087812 197.19697571 118.19914532 C201.7781618 118.20194503 206.35908516 118.18432656 210.94020081 118.1600132 C213.13460026 118.1498112 215.32902959 118.1447057 217.52345276 118.14481163 C220.59230851 118.14083814 223.65980376 118.11067041 226.72840881 118.07312012 C228.08452271 118.0781958 228.08452271 118.0781958 229.46803284 118.08337402 C234.96753403 117.98126433 238.1249237 117.15783044 242.49403381 113.50793457 C247.56578988 108.16202953 247.61772361 103.50767329 247.63929749 96.35021973 C247.6426561 95.64872299 247.64601471 94.94722626 247.6494751 94.22447205 C247.65894068 91.91529549 247.66092598 89.60619179 247.66200256 87.29699707 C247.66521815 85.68423432 247.66858245 84.07147186 247.67208862 82.45870972 C247.67806887 79.08123092 247.67992965 75.70377766 247.67933655 72.32629395 C247.67923498 68.01007729 247.6928868 63.69402532 247.71010876 59.37784767 C247.72125681 56.04744726 247.7232549 52.71708632 247.72272682 49.38666916 C247.72390272 47.79594734 247.7283025 46.20522437 247.73605919 44.61452103 C247.74591614 42.38437793 247.74295882 40.15458792 247.73695374 37.92443848 C247.73909126 36.0251207 247.73909126 36.0251207 247.74127197 34.08743286 C247.3752974 28.78887637 246.57597638 24.78918235 243.11903381 20.69543457 C239.51039145 17.6882326 236.92793668 16.2596952 232.20796394 16.25066566 C231.35375142 16.24421677 230.4995389 16.23776788 229.61944115 16.23112357 C228.68579385 16.23422077 227.75214655 16.23731797 226.79020691 16.24050903 C225.79463583 16.23597792 224.79906475 16.23144681 223.77332485 16.22677839 C220.42773963 16.21408904 217.08231626 16.21575769 213.73670959 16.21740723 C211.34194224 16.21142483 208.94717681 16.20461996 206.55241394 16.197052 C200.71688505 16.18119508 194.8814055 16.17494236 189.04585613 16.17382725 C184.30248034 16.1728769 179.55911788 16.16876728 174.81574631 16.16242599 C161.36740918 16.14481316 147.91910398 16.13558722 134.47075523 16.13708694 C133.74576627 16.13716686 133.0207773 16.13724677 132.27381897 16.1373291 C131.54794483 16.13741086 130.8220707 16.13749262 130.07420038 16.13757686 C118.30937491 16.13838983 106.54467744 16.11924961 94.779889 16.09105237 C82.6998917 16.06232809 70.61995683 16.04851181 58.5399245 16.05023992 C51.75788078 16.05090397 44.97597125 16.0454052 38.19395828 16.02388382 C31.81636707 16.00455417 25.43905967 16.00434103 19.06145859 16.01891708 C16.71931292 16.02101279 14.37714972 16.01625923 12.03503418 16.00419617 C8.84029608 15.98880604 5.64654421 15.99801129 2.451828 16.01345825 C1.52264215 16.00317113 0.59345629 15.992884 -0.36388671 15.98228514 C-6.88334572 16.05205634 -10.80789554 17.53075316 -15.31846619 22.50793457 Z M77.18153381 83.63293457 C75.29252633 85.38402241 75.29252633 85.38402241 75.15028381 87.83996582 C75.6025806 91.35040568 76.86078761 92.539023 79.30653381 95.07043457 C80.12122131 95.93152832 80.93590881 96.79262207 81.77528381 97.67980957 C82.67247131 98.61309082 83.56965881 99.54637207 84.49403381 100.50793457 C86.44274408 102.60187392 88.37425981 104.71133834 90.30653381 106.82043457 C91.19985413 107.78594238 92.09317444 108.7514502 93.01356506 109.74621582 C95.49403381 112.50793457 95.49403381 112.50793457 97.33387756 115.34387207 C99.42501591 117.87769618 99.42501591 117.87769618 103.16590881 117.99621582 C104.52614541 117.96320037 105.8859572 117.90387028 107.24403381 117.82043457 C108.29010803 117.78659668 108.29010803 117.78659668 109.35731506 117.7520752 C111.07048316 117.69340505 112.78254005 117.60372713 114.49403381 117.50793457 C110.69577583 112.0414221 106.47873618 107.37342986 101.72059631 102.72668457 C97.70899201 98.72915607 94.06300137 94.40816208 90.45887756 90.04309082 C89.76922913 89.22711426 89.07958069 88.4111377 88.36903381 87.57043457 C87.74770569 86.81891113 87.12637756 86.0673877 86.48622131 85.29309082 C83.46156915 82.58276526 80.87777083 81.83476521 77.18153381 83.63293457 Z " fill="#0079FF" transform="translate(71.50596618652344,105.4920654296875)"/>
<path d="M0 0 C5.77441941 3.27279797 8.66496548 8.26743097 11.5625 14.0625 C11.65433315 15.48165655 11.68443551 16.90505526 11.68275452 18.32717896 C11.68481651 19.66915344 11.68481651 19.66915344 11.68692017 21.03823853 C11.68152725 22.51422012 11.68152725 22.51422012 11.67602539 24.02001953 C11.67617142 25.05419006 11.67631744 26.0883606 11.6764679 27.15386963 C11.67576924 30.58437166 11.66797901 34.01481991 11.66015625 37.4453125 C11.6582919 39.81899994 11.65686808 42.19268777 11.65586853 44.56637573 C11.65204466 50.82339535 11.64221547 57.08039187 11.63116455 63.33740234 C11.62094764 69.7184213 11.61637031 76.09944398 11.61132812 82.48046875 C11.6005931 95.00782237 11.58370961 107.53515996 11.5625 120.0625 C12.23071777 119.77882568 12.89893555 119.49515137 13.58740234 119.20288086 C14.47379395 118.83557861 15.36018555 118.46827637 16.2734375 118.08984375 C17.14790527 117.72366943 18.02237305 117.35749512 18.92333984 116.98022461 C25.03110166 114.85635073 30.84859378 115.56248699 36.71875 118.1015625 C43.60015887 121.6880595 47.12312703 126.76514173 49.5625 134.0625 C50.78401971 141.61467841 49.34910692 147.49346943 45.5625 154.0625 C42.61732034 157.70081291 39.34387364 160.95923081 36.01171875 164.2421875 C35.07955032 165.17676788 34.1473819 166.11134827 33.18696594 167.07424927 C31.22372792 169.04032844 29.25209571 170.99743808 27.27368164 172.94824219 C24.75000067 175.43777252 22.24696917 177.94692979 19.74968243 180.46290398 C17.34708678 182.87865741 14.92890175 185.27852854 12.51171875 187.6796875 C11.61982346 188.57654266 10.72792816 189.47339783 9.80900574 190.39743042 C3.3627252 196.72324944 -1.51386916 200.48854207 -10.875 200.5 C-11.92558594 200.51933594 -12.97617187 200.53867187 -14.05859375 200.55859375 C-23.53470099 199.16730402 -29.27519408 192.81345259 -35.73828125 186.29296875 C-36.70556979 185.32838072 -37.67345093 184.36438662 -38.64189148 183.4009552 C-40.65950375 181.38920888 -42.66978383 179.37048733 -44.67504883 177.34643555 C-47.23469915 174.76396668 -49.81193627 172.19991861 -52.39494038 169.64083385 C-54.39345495 167.65682986 -56.38227562 165.66332709 -58.36836815 163.66689491 C-59.77163353 162.25969813 -61.18289741 160.86049197 -62.59431458 159.46147156 C-69.00787162 152.95331916 -72.8634056 148.09762198 -72.875 138.625 C-72.67477651 131.63319588 -71.37670321 127.21432642 -66.6015625 122.09375 C-60.20660882 116.11532587 -54.92174377 114.86205629 -46.31640625 114.69921875 C-42.67629187 115.15855476 -39.77529183 116.57731886 -36.4375 118.0625 C-36.43385437 116.81937042 -36.43020874 115.57624084 -36.42645264 114.29544067 C-36.38944084 102.55491643 -36.33160032 90.81465298 -36.25359726 79.07432747 C-36.21416237 73.03912424 -36.18195415 67.00406606 -36.16650391 60.96875 C-36.15131133 55.1395261 -36.11681889 49.31070106 -36.06919098 43.48165512 C-36.05440412 41.26266836 -36.04646054 39.04362464 -36.04561615 36.82458878 C-36.04323669 33.70571082 -36.01607728 30.58792642 -35.98339844 27.46923828 C-35.99094398 26.10653053 -35.99094398 26.10653053 -35.99864197 24.71629333 C-35.87980198 17.33982692 -34.17458686 10.45801133 -29.47265625 4.625 C-28.82167969 4.109375 -28.17070312 3.59375 -27.5 3.0625 C-26.85160156 2.52625 -26.20320313 1.99 -25.53515625 1.4375 C-17.94990233 -3.5345845 -8.21768647 -3.61080163 0 0 Z M-19.4375 19.0625 C-20.19000724 22.99375215 -20.11716269 26.88105963 -20.08105469 30.87353516 C-20.0943708 32.66693581 -20.0943708 32.66693581 -20.10795593 34.49656677 C-20.12757174 37.76732295 -20.12525468 41.0371878 -20.11346722 44.30795336 C-20.10660955 47.73259985 -20.12873524 51.15705318 -20.14801025 54.58163452 C-20.18029477 61.06614974 -20.18812627 67.55044244 -20.18643594 74.03502882 C-20.18497478 83.5571078 -20.21849464 93.07907762 -20.25416946 102.60107994 C-20.25939451 104.00564956 -20.26461685 105.41021918 -20.26983643 106.81478882 C-20.27244138 107.5004443 -20.27504633 108.18609978 -20.27773023 108.89253271 C-20.29473324 113.62757 -20.29928862 118.3624965 -20.29998779 123.0975647 C-20.30380741 125.56846114 -20.3076513 128.03935755 -20.31152344 130.51025391 C-20.30942368 131.64175369 -20.30732391 132.77325348 -20.30516052 133.93904114 C-20.30772354 134.97088028 -20.31028656 136.00271942 -20.31292725 137.06582642 C-20.3128857 137.96361124 -20.31284416 138.86139606 -20.31280136 139.78638649 C-20.4375 142.0625 -20.4375 142.0625 -21.4375 145.0625 C-25.05099341 146.01685379 -27.82443411 146.07637053 -31.4375 145.0625 C-34.55759409 142.6609956 -37.15465309 139.76079293 -39.70581055 136.7746582 C-42.53424906 133.55566173 -43.88012933 132.21328343 -48.1484375 131.05859375 C-51.49900965 130.81385428 -51.49900965 130.81385428 -54.375 132.5625 C-56.51298125 135.15399242 -57.17784773 136.62302394 -57.05838013 139.98147583 C-55.58603511 144.91638263 -51.06577723 148.42031579 -47.49609375 151.93359375 C-46.58046158 152.855923 -45.66482941 153.77825226 -44.72145081 154.72853088 C-42.78469901 156.6755818 -40.83590829 158.60946392 -38.87768555 160.53491211 C-36.37414882 162.99856319 -33.90336626 165.49232104 -31.44077969 167.99682522 C-29.08032056 170.38872731 -26.69347028 172.75353394 -24.30859375 175.12109375 C-23.42602402 176.0178331 -22.54345428 176.91457245 -21.63414001 177.83848572 C-18.15625859 181.22504741 -15.58395233 183.70762871 -10.90795898 185.1550293 C-5.35608956 183.40725471 -2.04462535 179.62699017 1.9609375 175.5234375 C3.27428574 174.21301987 3.27428574 174.21301987 4.61416626 172.87612915 C6.9319145 170.55336095 9.23232651 168.21492925 11.52734375 165.86975098 C12.93633046 164.43868787 14.3564869 163.0198348 15.78173828 161.60498047 C18.52243894 158.88328936 21.24465105 156.14447476 23.9609375 153.3984375 C24.80876801 152.55445404 25.65659851 151.71047058 26.53012085 150.84091187 C27.69736191 149.64034653 27.69736191 149.64034653 28.88818359 148.41552734 C29.57544525 147.71825531 30.26270691 147.02098328 30.97079468 146.30258179 C32.93423312 143.53934249 33.2966866 141.41583004 33.5625 138.0625 C32.75720612 135.42699276 32.00907038 134.39742778 29.8125 132.75 C26.58533158 131.76392076 24.82124174 132.11528201 21.5625 133.0625 C19.14357343 134.99933025 17.12432644 137.25580106 15.0625 139.5625 C9.50940431 145.77510825 9.50940431 145.77510825 5.33203125 147.04296875 C1.82205909 147.06772173 0.25138262 146.29043131 -2.4375 144.0625 C-3.49904696 141.03005635 -3.56429468 138.17018442 -3.56880188 134.97680664 C-3.57281006 133.95056183 -3.57681824 132.92431702 -3.58094788 131.86697388 C-3.58041916 130.74684906 -3.57989044 129.62672424 -3.5793457 128.47265625 C-3.58282013 127.28856171 -3.58629456 126.10446716 -3.58987427 124.88449097 C-3.59722799 122.3123115 -3.60257542 119.7401257 -3.60616493 117.16793823 C-3.61208446 113.10027845 -3.62863251 109.03270572 -3.64750671 104.96508789 C-3.65384357 103.57164007 -3.6601692 102.17819219 -3.66648388 100.78474426 C-3.66964969 100.0870524 -3.6728155 99.38936054 -3.67607725 98.6705265 C-3.71813843 89.20321776 -3.75114455 79.73595071 -3.76342773 70.26855469 C-3.77180361 63.87832579 -3.7942728 57.48831363 -3.8327834 51.09819317 C-3.8525535 47.71772852 -3.86494549 44.33758793 -3.85994911 40.95706177 C-3.85760668 37.18848824 -3.87968253 33.42079822 -3.9074707 29.65234375 C-3.90086929 28.53221893 -3.89426788 27.41209412 -3.88746643 26.25802612 C-3.89993408 25.23178131 -3.91240173 24.2055365 -3.92524719 23.14819336 C-3.92763555 22.25740585 -3.9300239 21.36661835 -3.93248463 20.44883728 C-4.60518137 17.27015917 -5.92954805 16.06424338 -8.4375 14.0625 C-13.94765675 13.0073636 -16.20314067 14.65186865 -19.4375 19.0625 Z " fill="#0079FF" transform="translate(457.4375,131.9375)"/>
<path d="M0 0 C3.22076492 2.13211927 6.13751156 4.4106951 9 7 C9.62132812 7.54140625 10.24265625 8.0828125 10.8828125 8.640625 C21.59507279 18.56453713 26.22997915 32.21970808 27.25 46.5 C26.88843507 63.4935516 20.10973737 77.2039864 8 89 C6.63802611 90.22299696 5.26367354 91.43240609 3.875 92.625 C-3.66492526 99.10903829 -8.28274584 105.84677714 -12.62866211 114.74560547 C-18.47276362 126.47676996 -27.53487833 133.68896094 -39.7734375 138.2734375 C-45.00647292 139.98105958 -49.71005844 140.21605768 -55.1875 140.25 C-56.40663086 140.2809375 -56.40663086 140.2809375 -57.65039062 140.3125 C-66.63294771 140.36966822 -73.73170412 138.21042978 -80.26953125 131.93359375 C-85.65604107 125.91480738 -86.72433416 120.28582376 -86.4453125 112.25 C-85.3488782 104.24795318 -81.45254304 99.35611003 -75.85717773 93.88769531 C-65.93170198 83.79912183 -58.63883161 71.88676774 -53 59 C-52.53207031 57.99453125 -52.06414062 56.9890625 -51.58203125 55.953125 C-46.3210462 43.7152644 -44.43223658 30.15169446 -42.125 17.10546875 C-41.99561035 16.38141846 -41.8662207 15.65736816 -41.73291016 14.91137695 C-41.40113673 13.02370836 -41.08654666 11.13304153 -40.7734375 9.2421875 C-39.07395247 2.11808357 -35.78867494 -1.83938989 -30 -6 C-19.51484089 -12.07035527 -9.1456287 -5.4545128 0 0 Z M-23.60253906 9.57055664 C-25.38252337 12.66500526 -25.81033583 15.34330875 -26.359375 18.87109375 C-26.58567256 20.25401636 -26.81266975 21.63682462 -27.0402832 23.01953125 C-27.15538239 23.74092285 -27.27048157 24.46231445 -27.3890686 25.20556641 C-32.58890709 57.36041441 -43.95115014 83.81091691 -66.62890625 107.453125 C-69.21958739 110.23586652 -69.89936768 111.09430914 -70.3125 114.8125 C-69.92653707 118.74932188 -68.76603321 120.23396679 -66 123 C-59.13548782 125.28817073 -49.68983172 125.18287762 -43 122.3125 C-41.64348013 121.58324308 -40.30780586 120.81339145 -39 120 C-38.36578125 119.62617188 -37.7315625 119.25234375 -37.078125 118.8671875 C-30.26156949 114.46847005 -27.21181792 108.49219354 -23.875 101.3125 C-19.52990745 92.21503778 -12.76976516 85.60514691 -5.578125 78.71484375 C0.67563238 72.69169642 6.12123059 67.42359126 9 59 C9.25136719 58.27554688 9.50273437 57.55109375 9.76171875 56.8046875 C12.4632287 47.20314259 10.78884166 37.59579853 6 29 C5.443125 27.989375 4.88625 26.97875 4.3125 25.9375 C-1.90058833 18.0451986 -9.97536647 12.33616025 -19 8 C-22.0168731 7.65002794 -22.0168731 7.65002794 -23.60253906 9.57055664 Z " fill="#0079FF" transform="translate(278,257)"/>
<path d="M0 0 C5.07785024 2.85249754 8.48374904 7.00305963 10.75 12.375 C11.25535305 14.71152922 11.69064085 17.06357815 12.08203125 19.421875 C12.32593623 20.8398843 12.57008546 22.25785161 12.81445312 23.67578125 C13.18672942 25.87940501 13.55565675 28.08349083 13.91918945 30.28857422 C16.192682 43.9793936 19.35402471 57.4344264 25.4375 70 C25.77289795 70.69891357 26.1082959 71.39782715 26.45385742 72.11791992 C32.02497487 83.32500919 39.66197332 92.6859694 48.3046875 101.65625 C54.37126976 108.40120408 57.30023567 114.65101567 57.0546875 123.72265625 C56.16666247 131.45302801 53.04854426 136.83858134 47.23828125 141.90234375 C40.59487615 145.83415493 33.93231153 146.88421171 26.3125 146.75 C25.47992676 146.74057373 24.64735352 146.73114746 23.78955078 146.72143555 C17.71404244 146.57231051 12.33006007 145.92353572 6.75 143.375 C5.99847656 143.0346875 5.24695313 142.694375 4.47265625 142.34375 C-6.79224947 136.64390027 -12.99972207 128.47395479 -18.73828125 117.5390625 C-23.19712514 109.12832337 -28.04994285 103.28978295 -35.2421875 97.109375 C-46.51482252 87.37192374 -54.2425495 75.35512589 -56.25 60.375 C-57.32374285 43.31900787 -53.13585279 29.18360344 -42.03125 16.1171875 C-31.88638808 6.1148096 -14.53969116 -6.4409473 0 0 Z M-17.625 18.5625 C-18.615 19.14354492 -18.615 19.14354492 -19.625 19.73632812 C-23.71964869 22.20372101 -26.98647406 24.83124285 -30.25 28.375 C-31.095625 29.2825 -31.94125 30.19 -32.8125 31.125 C-39.26691296 39.00467765 -41.03235509 48.45068076 -40.25 58.375 C-37.67666986 72.44108426 -28.78842315 81.96764514 -18.125 90.8125 C-11.93629156 96.18175495 -7.98110792 102.83422098 -4.32080078 110.07495117 C0.48519523 119.54846534 5.56867059 126.02279748 15.828125 129.71875 C22.33843353 131.18095833 30.4494956 131.94079946 36.57421875 129.03515625 C38.97472049 127.39000511 38.97472049 127.39000511 40.75 124.375 C40.88896235 117.28792023 37.30955934 114.19888162 32.75 109.375 C11.63361068 85.51622245 2.63162894 59.16954106 -2.890625 28.43896484 C-3.03292542 27.66024017 -3.17522583 26.8815155 -3.32183838 26.07919312 C-3.59148944 24.59758842 -3.85427874 23.1147141 -4.10931396 21.63052368 C-4.79979224 17.58185979 -4.79979224 17.58185979 -7.25 14.375 C-11.43050506 14.375 -14.15813113 16.45092253 -17.625 18.5625 Z " fill="#0079FF" transform="translate(124.25,250.625)"/>
<path d="M0 0 C3.32274404 2.45594125 4.77618008 3.9256644 5.625 8 C4.65276113 12.66674658 1.82929295 14.7017921 -1.9375 17.375 C-4.97325734 18.29492647 -6.97425019 17.88251036 -10 17 C-13.02706748 14.84918889 -13.87395791 13.74049726 -14.5 10.0625 C-13.8819797 6.27712569 -12.69402411 4.69402411 -10 2 C-6.74433918 -0.27896258 -3.91322857 -0.55903265 0 0 Z " fill="#0079FF" transform="translate(266,178)"/>
<path d="M0 0 C2.52435891 2.00207776 3.85522303 3.77058242 4.23828125 7.0234375 C4.43724104 13.32732147 4.43724104 13.32732147 2.375 16.5 C-0.56874992 18.35921047 -2.51270927 18.9288308 -6 19 C-10.56521739 16.86956522 -10.56521739 16.86956522 -12 14 C-12.92794483 5.26819127 -12.92794483 5.26819127 -10.125 1.4375 C-6.28645081 -1.15916563 -4.54125595 -1.11214431 0 0 Z " fill="#0079FF" transform="translate(190,134)"/>
<path d="M0 0 C4.03920262 1.24848081 5.20608717 2.54373362 7.4375 6.0625 C8.98336876 9.15423752 8.73109521 11.65679552 8.4375 15.0625 C6.875 17.5 6.875 17.5 4.4375 19.0625 C1 19.625 1 19.625 -2.5625 19.0625 C-5.69520435 16.55633652 -8.38166595 13.95925236 -9.5625 10.0625 C-9.48207234 6.20197245 -8.99031397 4.55322779 -6.4375 1.625 C-3.5625 0.0625 -3.5625 0.0625 0 0 Z " fill="#0079FF" transform="translate(142.5625,144.9375)"/>
<path d="M0 0 C3.70390021 2.02666238 5.65363011 3.48044516 8 7 C7.82135713 10.33466685 7.55604977 12.9860269 5.9375 15.9375 C2.72472908 17.69934212 -0.48687601 17.61645383 -4 17 C-9.5 14 -9.5 14 -11 11 C-11.35519903 7.16385043 -11.54724594 4.85370366 -9.4375 1.5625 C-6.02780394 -0.6232026 -3.987831 -0.55004566 0 0 Z " fill="#0078FF" transform="translate(112,178)"/>
<path d="M0 0 C1.85213968 3.18979611 1.74416028 6.40895214 1.125 9.9375 C-1.875 15.4375 -1.875 15.4375 -4.875 16.9375 C-8.71114957 17.29269903 -11.02129634 17.48474594 -14.3125 15.375 C-16.4982026 11.96530394 -16.42504566 9.925331 -15.875 5.9375 C-14.22822647 2.82039296 -12.80029859 0.64689558 -10 -1.5 C-6.34164444 -2.46838824 -3.26955198 -1.85274612 0 0 Z " fill="#0079FF" transform="translate(236.875,147.0625)"/>
</svg>
